<?xml version="1.0" encoding="UTF-8" standalone="no"?>
<!DOCTYPE svg PUBLIC "-//W3C//DTD SVG 1.1//EN" "http://www.w3.org/Graphics/SVG/1.1/DTD/svg11.dtd">
<!-- Oprettet af Microsoft Visio, SVG-eksport Logo with fox.svg Side-1 -->
<svg xmlns="http://www.w3.org/2000/svg" xmlns:xlink="http://www.w3.org/1999/xlink" xmlns:ev="http://www.w3.org/2001/xml-events"
		xmlns:v="http://schemas.microsoft.com/visio/2003/SVGExtensions/" width="18.8199in" height="6.65922in"
		viewBox="0 0 1355.03 479.464" xml:space="preserve" color-interpolation-filters="sRGB" class="st7">
	<v:documentProperties v:langID="1033" v:metric="true" v:viewMarkup="false">
		<v:userDefs>
			<v:ud v:nameU="Ifc__CustomPropsLevel" v:val="VT0(0):26"/>
		</v:userDefs>
	</v:documentProperties>

	<style type="text/css">
	<![CDATA[
		.st1 {fill:none;stroke:none;stroke-linecap:round;stroke-linejoin:round;stroke-width:0.75}
		.st2 {fill:#000000;font-family:Segoe UI;font-size:26.6667em}
		.st3 {fill:#ef8310;font-family:Calibri;font-size:12.8333em}
		.st4 {fill:#ef8310;stroke:#ef8310;stroke-linecap:round;stroke-linejoin:round;stroke-width:0.75}
		.st5 {fill:#000000;stroke:#000000;stroke-linecap:round;stroke-linejoin:round;stroke-width:0.75}
		.st6 {fill:#ffffff;stroke:#000000;stroke-linecap:round;stroke-linejoin:round;stroke-width:0.75}
		.st7 {fill:none;fill-rule:evenodd;font-size:12px;overflow:visible;stroke-linecap:square;stroke-miterlimit:3}
	]]>
	</style>

	<g v:mID="0" v:index="1" v:groupContext="foregroundPage">
		<title>Side-1</title>
		<v:pageProperties v:drawingScale="39.3701" v:pageScale="0.787402" v:drawingUnits="6" v:shadowOffsetX="8.50394"
				v:shadowOffsetY="-8.50394"/>
		<g id="shape16-1" v:mID="16" v:groupContext="shape" transform="translate(279.588,-155.69)">
			<title>Ark.16</title>
			<desc>FOXIDS</desc>
			<v:textBlock v:margins="rect(4,4,4,4)" v:tabSpace="42.5197"/>
			<v:textRect cx="537.534" cy="347.69" width="1075.07" height="263.549"/>
			<rect x="0" y="215.915" width="1075.07" height="263.549" class="st1"/>
			<text x="4" y="443.69" class="st2" v:langID="2057"><v:paragraph/><v:tabList/>FOXIDS</text>		</g>
		<g id="shape17-4" v:mID="17" v:groupContext="shape" transform="translate(302.265,-81.1982)">
			<title>Ark.17</title>
			<desc>Identity Services</desc>
			<v:textBlock v:margins="rect(4,4,4,4)" v:tabSpace="42.5197"/>
			<v:textRect cx="518.284" cy="468.262" width="1036.57" height="22.4037"/>
			<rect x="0" y="457.06" width="1036.57" height="22.4037" class="st1"/>
			<text x="4" y="514.46" class="st3" v:langID="2057"><v:paragraph/><v:tabList/>Identity Services</text>		</g>
		<g id="group18-7" transform="translate(0.375,-39.4691)" v:mID="18" v:groupContext="group">
			<title>Ark.18</title>
			<g id="shape19-8" v:mID="19" v:groupContext="shape">
				<title>Ark.19</title>
				<path d="M208.71 446.87 C202.52 451.3 197.93 455.14 192.9 458.51 C183.76 464.63 173.18 469.18 162.43 472.9 C152.36
							 476.37 142.13 479.11 130.74 479.46 C121.8 479.74 112.13 478.55 103.5 477.17 C89.12 474.88 77.58 472.07
							 64.34 466.32 C57 463.13 49.14 459.04 41.82 453.26 C35.86 448.55 30.25 442.72 26.04 437.9 C20.98 432.11
							 17.94 427.78 14.68 421.2 C12.6 417.01 10.44 411.91 8.52 406.93 C4.54 396.66 1.57 386.89 0.5 376.8 C-0.26
							 369.63 -0.06 362.29 0.49 355.01 C0.99 348.48 1.77 342 3.06 336.41 C6.25 322.6 12.58 314.2 23.65 298.68
							 C22.18 298.35 20.28 298.81 18.97 299.19 C18.7 299.27 18.46 299.34 18.2 299.43 C17.5 299.65 16.67 299.95
							 15.95 300.26 C15.04 300.65 14.3 301.07 13.53 301.48 C13.25 301.63 12.96 301.77 12.64 301.98 C12.48 302.09
							 12.31 302.21 12.15 302.31 C12.06 302.38 11.98 302.43 11.91 302.47 C11.4 302.72 12.12 301.36 12.63 300.43
							 C13.09 299.61 13.38 299.13 13.71 298.58 C14.14 297.86 14.64 297.01 15.14 296.22 C15.71 295.33 16.28
							 294.51 16.98 293.45 C18.36 291.62 19.23 290.63 19.98 289.79 C21.17 288.46 22.1 287.48 23.22 286.34 C24.9
							 284.63 27.03 282.55 29.25 280.45 C30.78 279.01 32.35 277.55 34 276.19 C35.97 274.55 38.07 273.04 40.18
							 271.58 C42.2 270.19 44.24 268.84 46.37 267.56 C49.13 265.89 52.03 264.31 54.96 262.86 C58.81 260.94
							 62.71 259.22 66.75 257.63 C69.1 256.7 71.5 255.81 73.85 255.03 C78.59 253.45 83.16 252.27 88.21 250.82
							 C91.88 249.77 95.79 248.58 99.17 247.7 C102.63 246.81 105.53 246.24 109.34 245.31 C110.56 245.01 111.88
							 244.68 113.59 244.29 C114.54 244.07 115.61 243.83 116.09 244.09 C116.63 244.38 116.42 245.29 116.25
							 246.32 C116.15 246.88 116.07 247.48 116 247.99 C115.8 249.38 115.66 250.14 115.55 250.82 C115.34 252.06
							 115.21 253.02 114.9 254.56 C114.5 256.54 113.81 259.47 113.05 261.95 C112.39 264.07 111.68 265.84 110.86
							 267.73 C110.01 269.66 109.06 271.71 108.06 273.7 C106.73 276.35 105.31 278.9 104.15 280.97 C103.43 282.26
							 102.81 283.35 101.41 285.31 C100.58 286.48 99.48 287.94 98.67 288.99 C97.25 290.83 96.74 291.42 95.71
							 292.65 C94.33 294.33 92.01 297.19 90.09 299.3 C88.06 301.54 86.49 302.95 84.53 304.78 C83.06 306.16
							 81.38 307.77 79.81 309.21 C78.09 310.8 76.51 312.18 74.82 313.58 C71.43 316.4 67.61 319.29 64.23 322.39
							 C62.26 324.19 60.45 326.07 58.67 327.92 C56.65 330.01 54.67 332.08 52.75 334.35 C51.51 335.81 50.29
							 337.36 49.3 338.88 C48.55 340.01 47.93 341.12 47.22 342.35 C46.44 343.68 45.56 345.15 44.82 346.49 C43.64
							 348.59 42.79 350.36 42.02 353.13 C41.59 354.68 41.19 356.54 41.02 357.85 C40.87 358.9 40.88 359.59 40.88
							 360.08 C40.87 360.85 40.81 361.12 40.79 362.23 C40.77 362.59 40.78 363.04 40.78 363.35 C40.78 364.12
							 40.79 364.12 40.78 364.29 C40.78 364.5 40.75 364.94 40.75 365.37 C40.75 365.62 40.75 365.87 40.75 366.33
							 C40.78 366.63 40.78 366.67 40.78 366.72 C40.77 367.01 40.82 367.63 40.84 367.99 C40.87 368.3 40.88 368.4
							 40.9 368.6 C40.92 368.72 40.93 368.87 40.99 369.93 L41.02 370.39 C41.08 371.29 41.08 371.47 41.09 371.64
							 C41.11 372.43 41.14 372.78 41.17 373.04 C41.22 373.55 41.24 373.72 41.3 374.23 C41.43 375.23 41.75 377.53
							 42.22 379.28 C42.53 380.44 42.92 381.36 43.35 382.37 C44.09 384.12 44.96 386.12 46.03 387.94 C46.55
							 388.83 47.11 389.68 47.68 390.46 C48.14 391.1 48.59 391.7 49.03 392.3 C49.9 393.49 50.72 394.7 51.82
							 396.01 C52.42 396.73 53.11 397.48 53.66 398.07 C53.99 398.41 54.26 398.7 54.57 399.02 C55.08 399.54
							 55.67 400.13 56.29 400.71 C57.17 401.53 58.1 402.35 59.1 403.2 C59.95 403.92 60.84 404.67 61.71 405.35
							 C63.95 407.14 65.99 408.51 68.14 409.93 C69.15 410.6 70.19 411.29 71.38 411.91 C72.33 412.4 73.37 412.86
							 73.38 412.6 C73.38 412.38 72.61 411.63 71.95 410.93 C70.91 409.82 70.12 408.82 69.27 407.48 C68.85 406.82
							 68.41 406.09 68.04 405.42 C67.59 404.63 67.22 403.93 66.89 403.23 C66.05 401.46 65.48 399.7 65.09 397.96
							 C64.82 396.77 64.64 395.59 64.47 394.27 C64.2 392.21 63.95 389.81 63.85 387.61 C63.64 383.03 64.07 379.33
							 65.24 374.91 C65.99 372.05 67.06 368.88 68.27 366.1 C68.9 364.66 69.56 363.33 70.19 362.12 C70.42 361.66
							 70.65 361.23 70.88 360.83 C71.21 360.25 71.54 359.75 72.04 358.79 C72.14 358.63 72.28 358.39 72.41 358.16
							 C73.51 356.29 74.26 355.18 74.92 354.21 C75.81 352.91 76.55 351.88 77.59 350.54 C79.04 348.68 81.07
							 346.21 82.85 344.19 C84.28 342.56 85.55 341.22 87.06 339.69 C90.43 336.29 95.03 331.94 98.19 328.74
							 C100.36 326.55 101.85 324.9 103.96 322.61 C105.22 321.25 106.7 319.66 108.14 317.96 C110.72 314.93 113.19
							 311.58 115.11 308.84 C116.05 307.49 116.86 306.29 117.71 304.86 C120.22 300.65 123.09 294.4 124.81 289.58
							 C125.31 288.18 125.71 286.91 126.09 285.61 C128.23 278.29 129.7 270.43 128.68 261.18 C128.3 257.78 127.58
							 254.2 126.63 251.19 C125.69 248.22 124.52 245.8 123.54 244.54 C121.89 242.45 120.36 240.78 118.73 239.21
							 C117.52 238.04 116.26 236.92 115.17 236.05 C114.32 235.36 113.57 234.82 112.63 234.25 C110.67 233.07
							 107.86 231.74 105.07 230.91 C100.11 229.45 95.2 229.6 90.16 229.48 C86.13 229.38 82.02 229.11 77.89
							 228.59 C75.67 228.31 73.44 227.97 71.28 227.62 C67.02 226.95 63.03 226.29 59.02 225.13 C56.16 224.31
							 53.28 223.22 50.71 222.01 C48.23 220.84 46.02 219.56 43.72 218.04 C41.09 216.31 38.34 214.29 36.43 212.17
							 C35.32 210.94 34.5 209.69 33.97 208.07 C33.43 206.44 33.2 204.45 33.84 203.19 C34.27 202.33 35.11 201.82
							 36.28 201.23 C39.27 199.74 44.47 197.78 47.71 196.5 C49.78 195.69 51.05 195.16 52.43 194.48 C59.71 190.88
							 70 183.09 75.51 176.26 C77.01 174.32 77.13 174.15 77.26 173.97 C78.05 172.86 79.33 171.11 80.27 169.8
							 C81.81 167.66 82.48 166.69 83.34 165.44 C84.96 163.09 87.26 159.76 89.8 156.26 C91.25 154.27 92.78 152.22
							 94.03 150.77 C94.55 150.16 95.02 149.66 95.26 148.97 C95.91 147.16 95.03 144.07 94.33 141.08 C92.39
							 132.74 91.85 125.17 91.97 117.2 C92.06 111.27 92.51 105.11 93.4 99.02 C93.82 96.12 94.34 93.23 95.44
							 91.69 C96.23 90.58 97.32 90.17 98.7 90.41 C101.29 90.86 104.91 93.63 107.88 96 C109.96 97.65 111.72
							 99.12 113.56 100.75 C116.81 103.64 120.28 107.07 123.04 110.04 C125 112.16 126.6 114.04 128.21 115.99
							 C129.15 117.12 130.08 118.27 131.11 119.52 C131.75 120.3 132.42 121.12 133.19 122.22 C134.63 124.28
							 136.43 127.34 137.8 128.44 C138.62 129.1 139.28 129.06 139.87 128.99 C141.73 128.76 142.8 128.26 148.73
							 128.13 C152.16 128.05 157.21 128.1 159.72 128.3 C160.9 128.39 161.51 128.52 162.1 128.31 C163.56 127.79
							 164.78 125.15 166.26 122.6 C168.64 118.47 171.68 114.58 174.43 111.11 C176.98 107.89 179.28 105.03 181.88
							 102.32 C184.69 99.38 187.85 96.61 191.38 93.69 C193.46 91.98 195.67 90.22 197.46 90.12 C200.23 89.97
							 202 93.76 203.61 97.39 C206.15 103.14 208.26 108.5 209.87 114.43 C210.67 117.34 211.34 120.4 211.87
							 123.45 C212.98 129.76 213.47 136.06 213.5 142.92 C213.52 149.72 213.07 157.06 211.69 163.48 C211.15
							 166.01 210.46 168.4 209.91 170.32 C209.48 171.86 209.13 173.1 209.61 174.51 C210.39 176.84 213.42 179.63
							 215.75 182.56 C217.26 184.45 218.47 186.39 219.59 188.16 C223.81 194.85 226.62 199.04 230.26 206.78
							 C233.58 213.84 237.59 223.87 236.89 224.85 C236.51 225.37 234.8 223.32 229.23 222.74 C224.89 222.29
							 218.2 222.73 213.94 223.18 C209.83 223.6 207.97 224.03 205.61 224.7 C202.77 225.5 199.22 226.63 195.91
							 228.04 C191.79 229.8 188.05 231.99 185.1 233.99 C183.76 234.89 182.59 235.75 181.26 237.07 C180.46 237.85
							 179.61 238.79 178.93 238.84 C177.66 238.93 176.97 235.93 176.01 233.49 C174.69 230.11 172.85 227.77
							 171.02 225.52 C168.6 222.56 166.2 219.75 162.95 217.34 C160.13 215.25 156.67 213.45 153.76 211.98 C151.94
							 211.06 150.34 210.26 148.37 209.46 C145.18 208.15 141.02 206.81 137.12 205.74 C129.37 203.61 122.64
							 202.56 115.42 202.5 C111.15 202.46 106.71 202.77 102.41 203.46 C97.64 204.23 93.03 205.47 88.19 206.22
							 C82.17 207.15 75.78 207.32 69.34 207.46 C66.57 207.52 63.78 207.58 61.22 207.27 C59 207.01 56.95 206.47
							 55.89 207.43 C55.06 208.18 54.85 209.87 54.42 210.91 C53.97 212.03 53.26 212.39 53.19 212.77 C52.8 214.76
							 69.98 217.09 83.78 217.7 C95.57 218.22 104.9 217.48 113.23 219.05 C117.89 219.93 122.23 221.52 126.3
							 223.53 C129.43 225.07 132.4 226.86 134.84 228.9 C136.81 230.55 138.44 232.37 140.02 234.41 C141.15 235.88
							 142.25 237.46 143.22 239.17 C144.19 240.87 145.02 242.71 145.74 244.66 C147.17 248.52 148.14 252.82
							 148.58 257.07 C149.28 263.75 148.67 270.28 147.43 276.04 C146.82 278.91 146.04 281.58 145.15 284.42
							 C144.32 287.04 143.4 289.79 142.3 292.62 C140.52 297.19 138.31 301.94 136.31 305.74 C135.28 307.7 134.31
							 309.4 133.21 311.35 C131.48 314.42 129.44 318.09 127.63 321.42 C124.18 327.79 121.56 332.95 119.59 337.11
							 C118.27 340 118.15 340.32 118.03 340.64 C116.44 344.78 115.57 347.32 114.77 350.56 C113.55 355.54 112.48
							 362.16 112.25 367.62 C112.13 370.62 112.25 373.27 112.42 376.38 C112.58 379.33 112.77 382.7 113.26 385.8
							 C114.19 391.69 116.18 396.64 118.29 401.39 C119.29 403.63 120.32 405.83 121.47 408.01 C122.54 410.01
							 123.71 412 123.88 411.39 C124.07 410.69 122.92 406.54 122.2 402.98 C121.34 398.72 121.09 395.33 121
							 391.95 C120.9 388.34 120.98 384.75 121.23 381.13 C121.35 379.37 121.51 377.61 121.72 375.83 C122.17
							 372.06 122.85 368.25 123.77 364.5 C126.34 354.07 130.77 344.15 135.93 334.77 C138.43 330.22 141.11 325.8
							 143.66 321.52 C147.63 314.87 151.32 308.58 155.45 301.76 C158.37 296.95 161.5 291.88 164.22 287.18 C165.41
							 285.12 166.52 283.13 167.51 281.02 C168.43 279.05 169.26 276.98 170.01 275.29 C170.73 273.66 171.4 272.4
							 171.71 272.51 C172.53 272.79 171.01 282.38 169.68 289.52 C168.39 296.51 167.29 301.15 165.93 306.12
							 C164.83 310.16 163.55 314.41 162.41 318.62 C160.64 325.2 159.21 331.69 158.04 339.4 C156.98 346.29 156.12
							 354.16 155.99 360.26 C155.91 364.07 156.11 367.19 156.69 371.04 C157.26 374.74 158.18 379.12 159.17
							 382.7 C160.2 386.44 161.31 389.29 163.16 392.68 C164.95 395.98 167.45 399.77 169.9 402.72 C172.13 405.4
							 174.33 407.38 176.59 409.24 C181.72 413.47 187.18 417.11 195.7 419.05 C193.13 422.04 191.35 423.76 189.16
							 425.58 C187.07 427.31 184.61 429.12 182.25 430.66 C180.04 432.11 177.91 433.31 175.67 434.46 C168.98
							 437.92 161.29 440.92 154.28 442.83 C160.96 446.05 169.04 447.75 177.95 448.56 C183.87 449.11 190.16
							 449.27 195.54 448.94 C200.49 448.63 204.67 447.91 208.71 446.87 Z" class="st4"/>
			</g>
			<g id="shape20-10" v:mID="20" v:groupContext="shape" transform="translate(174.137,-87.6672)">
				<title>Ark.20</title>
				<path d="M0.33 465.45 C0.38 459.47 0.25 453.12 0.21 446.76 C0.19 443.9 0.19 441.03 0.19 438.18 C0.18 432.54 0.16
							 426.95 0.08 421.16 C0.01 416 -0.1 410.67 0.19 405.9 C0.36 403.08 0.68 400.45 1.71 398.23 C3.19 395.02
							 6.16 392.68 8.85 390.98 C8.88 388.38 8.89 386.03 8.89 383.76 C8.88 379.81 8.86 376.07 8.85 371.66 C8.85
							 366.28 8.87 359.91 9.54 354.95 C9.94 351.97 10.57 349.51 11.54 347.22 C13.48 342.64 16.78 338.76 19.41
							 335.83 C20.88 334.37 22.02 333.5 23.26 332.61 C24.63 331.62 26.12 330.59 27.67 329.69 C29.99 328.33
							 32.43 327.24 35.2 326.47 C41.55 324.71 49.61 324.67 56.07 326.13 C59.62 326.93 62.68 328.18 65.63 329.87
							 C67.47 330.91 69.26 332.13 70.87 333.48 C72.43 334.8 73.81 336.25 75.11 337.8 C75.98 338.84 76.81 339.93
							 77.63 341.13 C78.43 342.29 79.23 343.56 79.94 344.87 C81.24 347.27 82.27 349.82 82.83 352.1 C83.13 353.36
							 83.3 354.53 83.43 355.79 C83.96 360.91 83.97 367.56 83.98 373.85 C83.99 379.79 83.99 385.42 83.86 391.19
							 C85.84 392.03 87.41 393.6 88.7 395.15 C89.88 396.57 90.84 397.98 91.49 399.44 C92.17 400.96 92.52 402.54
							 92.66 404.49 C92.74 405.68 92.75 407.02 92.74 408.33 C92.74 409.73 92.72 411.1 92.71 412.42 C92.71 413.69
							 92.71 414.91 92.71 416.16 C92.72 418.22 92.71 420.34 92.71 422.51 C92.7 428.61 92.79 435.08 92.77 441.38
							 C92.76 447.02 92.68 452.52 92.84 458.5 C92.91 461.37 93.05 464.35 92.59 466.76 C92.24 468.61 91.53 470.13
							 90.63 471.55 C88.65 474.7 85.73 477.42 81.63 478.6 C78.19 479.59 73.92 479.49 69.86 479.44 C66.2 479.4
							 62.71 479.4 59.23 479.38 C51.52 479.35 43.86 479.25 36.17 479.11 C30.78 479.01 25.36 478.89 19.89 478.9
							 C17.6 478.91 15.29 478.93 13.2 478.73 C11.54 478.57 10.02 478.26 8.64 477.61 C6.41 476.57 4.56 474.65
							 3.16 472.81 C1.62 470.8 0.63 468.89 0.33 465.45 Z" class="st5"/>
			</g>
			<g id="shape21-12" v:mID="21" v:groupContext="shape" transform="translate(202.128,-176.293)">
				<title>Ark.21</title>
				<path d="M0 477.72 C0 476.65 0 476.47 0 476.3 C-0.02 472.36 0.05 469.17 0.06 464.73 C0.08 459.77 0.03 453.25 0.28
							 448.55 C0.42 445.98 0.65 443.95 1.63 441.85 C2.55 439.87 4.14 437.82 6.08 436.25 C8.23 434.52 10.79
							 433.38 13.45 432.78 C15.99 432.2 18.62 432.13 21.3 432.49 C23.08 432.72 24.88 433.15 26.49 433.78 C28.31
							 434.5 29.88 435.5 31.36 436.81 C32.76 438.06 34.08 439.6 35.01 441.17 C36.58 443.86 37 446.64 37.18
							 449.86 C37.33 452.59 37.32 455.64 37.32 458.49 C37.33 462.4 37.38 465.94 37.39 469.88 C37.4 473.1 37.39
							 476.59 37.39 479.46 C32.48 479.46 27.72 479.45 22.8 479.46 C21.12 479.46 19.42 479.46 17.72 479.46 C14.46
							 479.46 11.19 479.44 8.04 479.45 C5.42 479.46 2.88 479.49 0.16 479.4 C0.08 479.4 0 479.4 0 477.72 Z"
						class="st6"/>
			</g>
			<g id="shape22-14" v:mID="22" v:groupContext="shape" transform="translate(211.861,-116.025)">
				<title>Ark.22</title>
				<path d="M1.76 451.43 C1.04 452.47 0.9 452.75 0.78 453 C0.35 453.96 0.22 454.76 0.16 455.53 C0.04 457.36 0.35 459.1
							 1.34 460.73 C2.1 461.99 3.27 463.18 3.65 464.1 C3.84 464.58 3.83 464.98 3.78 465.43 C3.6 466.97 2.94
							 469.08 1.88 471.66 C0.88 474.11 -0.47 476.99 0.16 478.32 C0.97 480.02 4.96 479.23 9.14 479.29 C12.57
							 479.34 16.11 479.96 17.25 478.62 C18.67 476.95 16.36 472.25 14.94 469.13 C13.82 466.65 13.27 465.16
							 14.05 463.74 C14.83 462.32 16.95 460.97 17.53 458.45 C17.96 456.62 17.57 454.19 16.5 452.35 C15.62 450.85
							 14.28 449.75 12.92 449.05 C11.64 448.4 10.34 448.1 8.95 448.08 C7.63 448.05 6.23 448.27 5.09 448.76
							 C3.54 449.42 2.47 450.59 1.76 451.43 Z" class="st6"/>
			</g>
		</g>
	</g>
</svg>
