<?xml version="1.0" encoding="UTF-8" standalone="no"?>
<!DOCTYPE svg PUBLIC "-//W3C//DTD SVG 1.1//EN" "http://www.w3.org/Graphics/SVG/1.1/DTD/svg11.dtd">
<!-- Oprettet af Microsoft Visio, SVG-eksport Logo with fox.svg Side-1 -->
<svg xmlns="http://www.w3.org/2000/svg" xmlns:xlink="http://www.w3.org/1999/xlink" xmlns:ev="http://www.w3.org/2001/xml-events"
		xmlns:v="http://schemas.microsoft.com/visio/2003/SVGExtensions/" width="17.0183in" height="6.50089in"
		viewBox="0 0 1225.32 468.064" xml:space="preserve" color-interpolation-filters="sRGB" class="st7">
	<v:documentProperties v:langID="1033" v:metric="true" v:viewMarkup="false">
		<v:userDefs>
			<v:ud v:nameU="Ifc__CustomPropsLevel" v:val="VT0(0):26"/>
		</v:userDefs>
	</v:documentProperties>

	<style type="text/css">
	<![CDATA[
		.st1 {fill:none;stroke:none;stroke-linecap:round;stroke-linejoin:round;stroke-width:0.75}
		.st2 {fill:#000000;font-family:Segoe UI;font-size:26.6667em}
		.st3 {fill:#ef8310;font-family:Calibri;font-size:11.25em}
		.st4 {fill:#ef8310;stroke:#ef8310;stroke-linecap:round;stroke-linejoin:round;stroke-width:0.75}
		.st5 {fill:#000000;stroke:#000000;stroke-linecap:round;stroke-linejoin:round;stroke-width:0.75}
		.st6 {fill:#ffffff;stroke:#000000;stroke-linecap:round;stroke-linejoin:round;stroke-width:0.75}
		.st7 {fill:none;fill-rule:evenodd;font-size:12px;overflow:visible;stroke-linecap:square;stroke-miterlimit:3}
	]]>
	</style>

	<g v:mID="0" v:index="1" v:groupContext="foregroundPage">
		<title>Side-1</title>
		<v:pageProperties v:drawingScale="39.3701" v:pageScale="0.787402" v:drawingUnits="6" v:shadowOffsetX="8.50394"
				v:shadowOffsetY="-8.50394"/>
		<g id="shape16-1" v:mID="16" v:groupContext="shape" transform="translate(279.588,-144.29)">
			<title>Ark.16</title>
			<desc>FoxIDs</desc>
			<v:textBlock v:margins="rect(4,4,4,4)" v:tabSpace="42.5197"/>
			<v:textRect cx="472.677" cy="336.29" width="945.36" height="263.549"/>
			<rect x="0" y="204.515" width="945.354" height="263.549" class="st1"/>
			<text x="4" y="432.29" class="st2" v:langID="2057"><v:paragraph/><v:tabList/>FoxIDs</text>		</g>
		<g id="shape17-4" v:mID="17" v:groupContext="shape" transform="translate(302.265,-69.7982)">
			<title>Ark.17</title>
			<desc>Identity Services</desc>
			<v:textBlock v:margins="rect(4,4,4,4)" v:tabSpace="42.5197"/>
			<v:textRect cx="455.669" cy="456.862" width="911.34" height="22.4037"/>
			<rect x="0" y="445.66" width="911.339" height="22.4037" class="st1"/>
			<text x="4" y="497.36" class="st3" v:langID="2057"><v:paragraph/><v:tabList/>Identity Services</text>		</g>
		<g id="group18-7" transform="translate(0.375,-28.0692)" v:mID="18" v:groupContext="group">
			<title>Ark.18</title>
			<g id="shape19-8" v:mID="19" v:groupContext="shape">
				<title>Ark.19</title>
				<path d="M208.71 435.47 C202.52 439.9 197.93 443.74 192.9 447.11 C183.76 453.23 173.18 457.78 162.43 461.5 C152.36
							 464.97 142.13 467.71 130.74 468.06 C121.8 468.34 112.13 467.15 103.5 465.77 C89.12 463.48 77.58 460.67
							 64.34 454.92 C57 451.73 49.14 447.64 41.82 441.86 C35.86 437.15 30.25 431.32 26.04 426.5 C20.98 420.71
							 17.94 416.38 14.68 409.8 C12.6 405.61 10.44 400.51 8.52 395.53 C4.54 385.26 1.57 375.49 0.5 365.4 C-0.26
							 358.23 -0.06 350.89 0.49 343.61 C0.99 337.08 1.77 330.6 3.06 325.01 C6.25 311.2 12.58 302.8 23.65 287.28
							 C22.18 286.95 20.28 287.41 18.97 287.79 C18.7 287.87 18.46 287.94 18.2 288.03 C17.5 288.25 16.67 288.55
							 15.95 288.86 C15.04 289.25 14.3 289.67 13.53 290.08 C13.25 290.23 12.96 290.37 12.64 290.58 C12.48 290.69
							 12.31 290.81 12.15 290.91 C12.06 290.98 11.98 291.03 11.91 291.07 C11.4 291.32 12.12 289.96 12.63 289.03
							 C13.09 288.21 13.38 287.73 13.71 287.18 C14.14 286.46 14.64 285.61 15.14 284.82 C15.71 283.93 16.28
							 283.11 16.98 282.05 C18.36 280.22 19.23 279.23 19.98 278.39 C21.17 277.06 22.1 276.08 23.22 274.94 C24.9
							 273.23 27.03 271.15 29.25 269.05 C30.78 267.61 32.35 266.16 34 264.79 C35.97 263.15 38.07 261.64 40.18
							 260.18 C42.2 258.79 44.24 257.44 46.37 256.16 C49.13 254.49 52.03 252.91 54.96 251.46 C58.81 249.54
							 62.71 247.82 66.75 246.23 C69.1 245.3 71.5 244.41 73.85 243.63 C78.59 242.05 83.16 240.87 88.21 239.42
							 C91.88 238.37 95.79 237.18 99.17 236.3 C102.63 235.41 105.53 234.84 109.34 233.91 C110.56 233.61 111.88
							 233.28 113.59 232.89 C114.54 232.67 115.61 232.43 116.09 232.69 C116.63 232.98 116.42 233.89 116.25
							 234.92 C116.15 235.48 116.07 236.08 116 236.59 C115.8 237.98 115.66 238.74 115.55 239.42 C115.34 240.66
							 115.21 241.62 114.9 243.16 C114.5 245.14 113.81 248.07 113.05 250.55 C112.39 252.67 111.68 254.44 110.86
							 256.33 C110.01 258.26 109.06 260.31 108.06 262.3 C106.73 264.95 105.31 267.5 104.15 269.57 C103.43 270.86
							 102.81 271.95 101.41 273.91 C100.58 275.08 99.48 276.54 98.67 277.59 C97.25 279.43 96.74 280.02 95.71
							 281.25 C94.33 282.93 92.01 285.79 90.09 287.9 C88.06 290.14 86.49 291.55 84.53 293.38 C83.06 294.76
							 81.38 296.37 79.81 297.81 C78.09 299.4 76.51 300.78 74.82 302.18 C71.43 305 67.61 307.89 64.23 310.99
							 C62.26 312.79 60.45 314.67 58.67 316.52 C56.65 318.61 54.67 320.68 52.75 322.95 C51.51 324.41 50.29
							 325.96 49.3 327.48 C48.55 328.61 47.93 329.72 47.22 330.95 C46.44 332.28 45.56 333.75 44.82 335.09 C43.64
							 337.19 42.79 338.96 42.02 341.73 C41.59 343.28 41.19 345.14 41.02 346.45 C40.87 347.5 40.88 348.19 40.88
							 348.68 C40.87 349.45 40.81 349.72 40.79 350.83 C40.77 351.19 40.78 351.64 40.78 351.95 C40.78 352.72
							 40.79 352.72 40.78 352.89 C40.78 353.1 40.75 353.54 40.75 353.97 C40.75 354.22 40.75 354.47 40.75 354.93
							 C40.78 355.23 40.78 355.27 40.78 355.32 C40.77 355.61 40.82 356.23 40.84 356.59 C40.87 356.9 40.88 357
							 40.9 357.2 C40.92 357.32 40.93 357.47 40.99 358.53 L41.02 358.99 C41.08 359.89 41.08 360.07 41.09 360.24
							 C41.11 361.03 41.14 361.38 41.17 361.64 C41.22 362.15 41.24 362.32 41.3 362.83 C41.43 363.84 41.75 366.13
							 42.22 367.88 C42.53 369.04 42.92 369.96 43.35 370.97 C44.09 372.72 44.96 374.72 46.03 376.54 C46.55
							 377.43 47.11 378.28 47.68 379.06 C48.14 379.7 48.59 380.3 49.03 380.9 C49.9 382.09 50.72 383.3 51.82
							 384.61 C52.42 385.33 53.11 386.08 53.66 386.67 C53.99 387.01 54.26 387.3 54.57 387.62 C55.08 388.14
							 55.67 388.73 56.29 389.31 C57.17 390.13 58.1 390.95 59.1 391.8 C59.95 392.52 60.84 393.27 61.71 393.95
							 C63.95 395.74 65.99 397.11 68.14 398.53 C69.15 399.2 70.19 399.89 71.38 400.51 C72.33 401 73.37 401.46
							 73.38 401.2 C73.38 400.98 72.61 400.23 71.95 399.53 C70.91 398.42 70.12 397.42 69.27 396.08 C68.85 395.42
							 68.41 394.69 68.04 394.02 C67.59 393.23 67.22 392.53 66.89 391.83 C66.05 390.06 65.48 388.3 65.09 386.56
							 C64.82 385.37 64.64 384.19 64.47 382.87 C64.2 380.81 63.95 378.41 63.85 376.21 C63.64 371.63 64.07 367.93
							 65.24 363.51 C65.99 360.65 67.06 357.48 68.27 354.7 C68.9 353.26 69.56 351.93 70.19 350.72 C70.42 350.26
							 70.65 349.83 70.88 349.43 C71.21 348.85 71.54 348.35 72.04 347.39 C72.14 347.23 72.28 346.99 72.41 346.76
							 C73.51 344.89 74.26 343.78 74.92 342.81 C75.81 341.51 76.55 340.48 77.59 339.14 C79.04 337.28 81.07
							 334.81 82.85 332.79 C84.28 331.16 85.55 329.82 87.06 328.29 C90.43 324.89 95.03 320.54 98.19 317.34
							 C100.36 315.15 101.85 313.5 103.96 311.21 C105.22 309.85 106.7 308.26 108.14 306.56 C110.72 303.53 113.19
							 300.18 115.11 297.44 C116.05 296.09 116.86 294.89 117.71 293.46 C120.22 289.25 123.09 283 124.81 278.18
							 C125.31 276.78 125.71 275.51 126.09 274.21 C128.23 266.89 129.7 259.03 128.68 249.78 C128.3 246.38 127.58
							 242.8 126.63 239.79 C125.69 236.82 124.52 234.4 123.54 233.14 C121.89 231.05 120.36 229.38 118.73 227.81
							 C117.52 226.64 116.26 225.52 115.17 224.65 C114.32 223.96 113.57 223.42 112.63 222.85 C110.67 221.67
							 107.86 220.34 105.07 219.51 C100.11 218.05 95.2 218.2 90.16 218.08 C86.13 217.98 82.02 217.71 77.89
							 217.19 C75.67 216.91 73.44 216.57 71.28 216.22 C67.02 215.55 63.03 214.89 59.02 213.73 C56.16 212.91
							 53.28 211.82 50.71 210.61 C48.23 209.44 46.02 208.16 43.72 206.64 C41.09 204.91 38.34 202.89 36.43 200.77
							 C35.32 199.54 34.5 198.29 33.97 196.67 C33.43 195.04 33.2 193.05 33.84 191.79 C34.27 190.93 35.11 190.42
							 36.28 189.83 C39.27 188.34 44.47 186.38 47.71 185.1 C49.78 184.29 51.05 183.76 52.43 183.08 C59.71 179.48
							 70 171.69 75.51 164.86 C77.01 162.92 77.13 162.75 77.26 162.57 C78.05 161.46 79.33 159.71 80.27 158.4
							 C81.81 156.26 82.48 155.29 83.34 154.04 C84.96 151.69 87.26 148.36 89.8 144.86 C91.25 142.87 92.78 140.82
							 94.03 139.37 C94.55 138.76 95.02 138.26 95.26 137.57 C95.91 135.76 95.03 132.67 94.33 129.68 C92.39
							 121.34 91.85 113.77 91.97 105.8 C92.06 99.87 92.51 93.71 93.4 87.62 C93.82 84.72 94.34 81.83 95.44 80.29
							 C96.23 79.18 97.32 78.77 98.7 79.01 C101.29 79.46 104.91 82.23 107.88 84.6 C109.96 86.25 111.72 87.72
							 113.56 89.35 C116.81 92.24 120.28 95.67 123.04 98.64 C125 100.76 126.6 102.64 128.21 104.59 C129.15
							 105.72 130.08 106.87 131.11 108.12 C131.75 108.9 132.42 109.72 133.19 110.82 C134.63 112.88 136.43 115.94
							 137.8 117.04 C138.62 117.7 139.28 117.66 139.87 117.59 C141.73 117.36 142.8 116.86 148.73 116.73 C152.16
							 116.65 157.21 116.7 159.72 116.9 C160.9 116.99 161.51 117.12 162.1 116.91 C163.56 116.39 164.78 113.75
							 166.26 111.2 C168.64 107.07 171.68 103.18 174.43 99.71 C176.98 96.49 179.28 93.63 181.88 90.92 C184.69
							 87.98 187.85 85.21 191.38 82.29 C193.46 80.58 195.67 78.82 197.46 78.72 C200.23 78.57 202 82.36 203.61
							 85.99 C206.15 91.74 208.26 97.1 209.87 103.03 C210.67 105.94 211.34 109 211.87 112.05 C212.98 118.36
							 213.47 124.66 213.5 131.52 C213.52 138.32 213.07 145.66 211.69 152.08 C211.15 154.61 210.46 157 209.91
							 158.92 C209.48 160.46 209.13 161.7 209.61 163.11 C210.39 165.44 213.42 168.23 215.75 171.16 C217.26
							 173.05 218.47 174.99 219.59 176.76 C223.81 183.45 226.62 187.64 230.26 195.38 C233.58 202.44 237.59
							 212.47 236.89 213.45 C236.51 213.97 234.8 211.92 229.23 211.34 C224.89 210.89 218.2 211.33 213.94 211.78
							 C209.83 212.2 207.97 212.63 205.61 213.3 C202.77 214.1 199.22 215.23 195.91 216.64 C191.79 218.4 188.05
							 220.59 185.1 222.59 C183.76 223.49 182.59 224.35 181.26 225.67 C180.46 226.45 179.61 227.39 178.93 227.44
							 C177.66 227.53 176.97 224.53 176.01 222.09 C174.69 218.71 172.85 216.37 171.02 214.12 C168.6 211.16
							 166.2 208.35 162.95 205.94 C160.13 203.85 156.67 202.05 153.76 200.58 C151.94 199.66 150.34 198.86 148.37
							 198.06 C145.18 196.75 141.02 195.41 137.12 194.34 C129.37 192.21 122.64 191.16 115.42 191.1 C111.15
							 191.06 106.71 191.37 102.41 192.06 C97.64 192.83 93.03 194.07 88.19 194.82 C82.17 195.75 75.78 195.92
							 69.34 196.06 C66.57 196.12 63.78 196.18 61.22 195.87 C59 195.61 56.95 195.07 55.89 196.03 C55.06 196.78
							 54.85 198.47 54.42 199.51 C53.97 200.63 53.26 200.99 53.19 201.37 C52.8 203.36 69.98 205.69 83.78 206.3
							 C95.57 206.82 104.9 206.08 113.23 207.65 C117.89 208.53 122.23 210.12 126.3 212.13 C129.43 213.67 132.4
							 215.46 134.84 217.5 C136.81 219.15 138.44 220.97 140.02 223.01 C141.15 224.48 142.25 226.06 143.22 227.77
							 C144.19 229.47 145.02 231.31 145.74 233.26 C147.17 237.12 148.14 241.42 148.58 245.67 C149.28 252.35
							 148.67 258.88 147.43 264.64 C146.82 267.51 146.04 270.18 145.15 273.02 C144.32 275.64 143.4 278.39 142.3
							 281.22 C140.52 285.79 138.31 290.54 136.31 294.34 C135.28 296.3 134.31 298 133.21 299.95 C131.48 303.02
							 129.44 306.69 127.63 310.02 C124.18 316.39 121.56 321.55 119.59 325.71 C118.27 328.6 118.15 328.92 118.03
							 329.24 C116.44 333.38 115.57 335.92 114.77 339.16 C113.55 344.14 112.48 350.76 112.25 356.22 C112.13
							 359.22 112.25 361.87 112.42 364.98 C112.58 367.93 112.77 371.3 113.26 374.4 C114.19 380.29 116.18 385.24
							 118.29 389.99 C119.29 392.23 120.32 394.43 121.47 396.61 C122.54 398.61 123.71 400.6 123.88 399.99 C124.07
							 399.29 122.92 395.14 122.2 391.58 C121.34 387.32 121.09 383.93 121 380.55 C120.9 376.94 120.98 373.35
							 121.23 369.73 C121.35 367.97 121.51 366.21 121.72 364.43 C122.17 360.66 122.85 356.85 123.77 353.1 C126.34
							 342.67 130.77 332.75 135.93 323.37 C138.43 318.82 141.11 314.4 143.66 310.12 C147.63 303.47 151.32 297.18
							 155.45 290.36 C158.37 285.55 161.5 280.48 164.22 275.78 C165.41 273.72 166.52 271.73 167.51 269.62 C168.43
							 267.65 169.26 265.58 170.01 263.89 C170.73 262.26 171.4 261 171.71 261.11 C172.53 261.39 171.01 270.98
							 169.68 278.12 C168.39 285.11 167.29 289.75 165.93 294.72 C164.83 298.76 163.55 303.01 162.41 307.22
							 C160.64 313.8 159.21 320.29 158.04 328 C156.98 334.89 156.12 342.76 155.99 348.86 C155.91 352.67 156.11
							 355.79 156.69 359.64 C157.26 363.34 158.18 367.72 159.17 371.3 C160.2 375.04 161.31 377.89 163.16 381.28
							 C164.95 384.58 167.45 388.37 169.9 391.32 C172.13 394 174.33 395.98 176.59 397.84 C181.72 402.07 187.18
							 405.71 195.7 407.65 C193.13 410.64 191.35 412.36 189.16 414.18 C187.07 415.91 184.61 417.72 182.25 419.26
							 C180.04 420.71 177.91 421.91 175.67 423.06 C168.98 426.52 161.29 429.52 154.28 431.43 C160.96 434.65
							 169.04 436.35 177.95 437.16 C183.87 437.71 190.16 437.87 195.54 437.54 C200.49 437.23 204.67 436.51
							 208.71 435.47 Z" class="st4"/>
			</g>
			<g id="shape20-10" v:mID="20" v:groupContext="shape" transform="translate(174.137,-87.6672)">
				<title>Ark.20</title>
				<path d="M0.33 454.05 C0.38 448.07 0.25 441.72 0.21 435.36 C0.19 432.5 0.19 429.63 0.19 426.78 C0.18 421.14 0.16
							 415.55 0.08 409.76 C0.01 404.6 -0.1 399.27 0.19 394.5 C0.36 391.68 0.68 389.05 1.71 386.83 C3.19 383.62
							 6.16 381.28 8.85 379.58 C8.88 376.98 8.89 374.63 8.89 372.36 C8.88 368.41 8.86 364.67 8.85 360.26 C8.85
							 354.88 8.87 348.51 9.54 343.55 C9.94 340.57 10.57 338.11 11.54 335.82 C13.48 331.24 16.78 327.36 19.41
							 324.43 C20.88 322.97 22.02 322.1 23.26 321.21 C24.63 320.22 26.12 319.19 27.67 318.29 C29.99 316.93
							 32.43 315.84 35.2 315.07 C41.55 313.31 49.61 313.27 56.07 314.73 C59.62 315.53 62.68 316.78 65.63 318.47
							 C67.47 319.51 69.26 320.73 70.87 322.08 C72.43 323.4 73.81 324.85 75.11 326.4 C75.98 327.44 76.81 328.53
							 77.63 329.73 C78.43 330.89 79.23 332.16 79.94 333.47 C81.24 335.87 82.27 338.42 82.83 340.7 C83.13 341.96
							 83.3 343.13 83.43 344.39 C83.96 349.51 83.97 356.16 83.98 362.45 C83.99 368.39 83.99 374.02 83.86 379.79
							 C85.84 380.63 87.41 382.2 88.7 383.75 C89.88 385.17 90.84 386.58 91.49 388.04 C92.17 389.56 92.52 391.14
							 92.66 393.09 C92.74 394.28 92.75 395.62 92.74 396.93 C92.74 398.33 92.72 399.7 92.71 401.02 C92.71 402.29
							 92.71 403.51 92.71 404.76 C92.72 406.82 92.71 408.94 92.71 411.11 C92.7 417.21 92.79 423.68 92.77 429.98
							 C92.76 435.62 92.68 441.12 92.84 447.1 C92.91 449.97 93.05 452.95 92.59 455.36 C92.24 457.21 91.53 458.73
							 90.63 460.15 C88.65 463.3 85.73 466.02 81.63 467.2 C78.19 468.19 73.92 468.09 69.86 468.04 C66.2 468
							 62.71 468 59.23 467.98 C51.52 467.95 43.86 467.85 36.17 467.71 C30.78 467.61 25.36 467.49 19.89 467.5
							 C17.6 467.51 15.29 467.54 13.2 467.33 C11.54 467.17 10.02 466.86 8.64 466.21 C6.41 465.17 4.56 463.25
							 3.16 461.41 C1.62 459.4 0.63 457.49 0.33 454.05 Z" class="st5"/>
			</g>
			<g id="shape21-12" v:mID="21" v:groupContext="shape" transform="translate(202.128,-176.293)">
				<title>Ark.21</title>
				<path d="M0 466.32 C0 465.25 0 465.07 0 464.9 C-0.02 460.96 0.05 457.77 0.06 453.33 C0.08 448.37 0.03 441.85 0.28
							 437.15 C0.42 434.58 0.65 432.55 1.63 430.45 C2.55 428.47 4.14 426.42 6.08 424.85 C8.23 423.12 10.79
							 421.98 13.45 421.38 C15.99 420.8 18.62 420.73 21.3 421.09 C23.08 421.32 24.88 421.75 26.49 422.38 C28.31
							 423.1 29.88 424.1 31.36 425.41 C32.76 426.66 34.08 428.2 35.01 429.77 C36.58 432.46 37 435.24 37.18
							 438.46 C37.33 441.19 37.32 444.24 37.32 447.09 C37.33 451 37.38 454.54 37.39 458.48 C37.4 461.7 37.39
							 465.19 37.39 468.06 C32.48 468.06 27.72 468.05 22.8 468.06 C21.12 468.06 19.42 468.06 17.72 468.06 C14.46
							 468.06 11.19 468.04 8.04 468.05 C5.42 468.06 2.88 468.09 0.16 468 C0.08 468 0 468 0 466.32 Z"
						class="st6"/>
			</g>
			<g id="shape22-14" v:mID="22" v:groupContext="shape" transform="translate(211.861,-116.025)">
				<title>Ark.22</title>
				<path d="M1.76 440.03 C1.04 441.07 0.9 441.35 0.78 441.6 C0.35 442.56 0.22 443.36 0.16 444.13 C0.04 445.96 0.35 447.7
							 1.34 449.33 C2.1 450.59 3.27 451.78 3.65 452.7 C3.84 453.18 3.83 453.58 3.78 454.03 C3.6 455.58 2.94
							 457.68 1.88 460.26 C0.88 462.71 -0.47 465.59 0.16 466.92 C0.97 468.62 4.96 467.83 9.14 467.89 C12.57
							 467.94 16.11 468.56 17.25 467.22 C18.67 465.56 16.36 460.85 14.94 457.73 C13.82 455.25 13.27 453.76
							 14.05 452.34 C14.83 450.92 16.95 449.57 17.53 447.05 C17.96 445.22 17.57 442.79 16.5 440.95 C15.62 439.45
							 14.28 438.35 12.92 437.65 C11.64 437 10.34 436.7 8.95 436.68 C7.63 436.65 6.23 436.87 5.09 437.36 C3.54
							 438.02 2.47 439.19 1.76 440.03 Z" class="st6"/>
			</g>
		</g>
	</g>
</svg>
