<?xml version="1.0" encoding="UTF-8" standalone="no"?>
<!DOCTYPE svg PUBLIC "-//W3C//DTD SVG 1.1//EN" "http://www.w3.org/Graphics/SVG/1.1/DTD/svg11.dtd">
<!-- Oprettet af Microsoft Visio, SVG-eksport Logo with fox.svg Side-1 -->
<svg xmlns="http://www.w3.org/2000/svg" xmlns:xlink="http://www.w3.org/1999/xlink" xmlns:ev="http://www.w3.org/2001/xml-events"
		xmlns:v="http://schemas.microsoft.com/visio/2003/SVGExtensions/" width="18.6198in" height="6.69256in"
		viewBox="0 0 1340.62 481.864" xml:space="preserve" color-interpolation-filters="sRGB" class="st8">
	<v:documentProperties v:langID="1033" v:metric="true" v:viewMarkup="false">
		<v:userDefs>
			<v:ud v:nameU="Ifc__CustomPropsLevel" v:val="VT0(0):26"/>
		</v:userDefs>
	</v:documentProperties>

	<style type="text/css">
	<![CDATA[
		.st1 {fill:none;stroke:none;stroke-linecap:round;stroke-linejoin:round;stroke-width:0.75}
		.st2 {fill:#000000;font-family:Segoe UI;font-size:28.3333em}
		.st3 {font-size:1em}
		.st4 {fill:#ef8310;font-family:Calibri;font-size:11.5em}
		.st5 {fill:#ef8310;stroke:#ef8310;stroke-linecap:round;stroke-linejoin:round;stroke-width:0.75}
		.st6 {fill:#000000;stroke:#000000;stroke-linecap:round;stroke-linejoin:round;stroke-width:0.75}
		.st7 {fill:#ffffff;stroke:#000000;stroke-linecap:round;stroke-linejoin:round;stroke-width:0.75}
		.st8 {fill:none;fill-rule:evenodd;font-size:12px;overflow:visible;stroke-linecap:square;stroke-miterlimit:3}
	]]>
	</style>

	<g v:mID="0" v:index="1" v:groupContext="foregroundPage">
		<title>Side-1</title>
		<v:pageProperties v:drawingScale="39.3701" v:pageScale="0.787402" v:drawingUnits="6" v:shadowOffsetX="8.50394"
				v:shadowOffsetY="-8.50394"/>
		<g id="shape1-1" v:mID="1" v:groupContext="shape" transform="translate(279.588,-146.09)">
			<title>Ark.1</title>
			<desc>Foxids</desc>
			<v:textBlock v:margins="rect(4,4,4,4)" v:tabSpace="42.5197"/>
			<v:textRect cx="530.22" cy="350.089" width="1060.45" height="263.549"/>
			<rect x="0" y="218.315" width="1060.44" height="263.549" class="st1"/>
			<text x="4" y="452.09" class="st2" v:langID="1033"><v:paragraph/><v:tabList/>F<tspan class="st3" v:langID="2057">oxids</tspan></text>		</g>
		<g id="shape5-5" v:mID="5" v:groupContext="shape" transform="translate(303.682,-71.5983)">
			<title>Ark.5</title>
			<desc>Identity Services</desc>
			<v:textBlock v:margins="rect(4,4,4,4)" v:tabSpace="42.5197"/>
			<v:textRect cx="518.284" cy="470.662" width="1036.57" height="22.4037"/>
			<rect x="0" y="459.46" width="1036.57" height="22.4037" class="st1"/>
			<text x="4" y="512.06" class="st4" v:langID="2057"><v:paragraph/><v:tabList/>Identity Services</text>		</g>
		<g id="group11-8" transform="translate(0.375,-29.8693)" v:mID="11" v:groupContext="group">
			<title>Ark.11</title>
			<g id="shape12-9" v:mID="12" v:groupContext="shape">
				<title>Ark.12</title>
				<path d="M208.71 449.27 C202.52 453.7 197.93 457.54 192.9 460.91 C183.76 467.03 173.18 471.58 162.43 475.3 C152.36
							 478.77 142.13 481.51 130.74 481.86 C121.8 482.14 112.13 480.95 103.5 479.57 C89.12 477.28 77.58 474.47
							 64.34 468.72 C57 465.53 49.14 461.44 41.82 455.66 C35.86 450.95 30.25 445.12 26.04 440.3 C20.98 434.51
							 17.94 430.18 14.68 423.6 C12.6 419.41 10.44 414.31 8.52 409.33 C4.54 399.06 1.57 389.29 0.5 379.2 C-0.26
							 372.03 -0.06 364.69 0.49 357.41 C0.99 350.88 1.77 344.4 3.06 338.81 C6.25 325 12.58 316.6 23.65 301.08
							 C22.18 300.75 20.28 301.21 18.97 301.59 C18.7 301.67 18.46 301.74 18.2 301.83 C17.5 302.05 16.67 302.35
							 15.95 302.66 C15.04 303.05 14.3 303.47 13.53 303.88 C13.25 304.03 12.96 304.17 12.64 304.38 C12.48 304.49
							 12.31 304.61 12.15 304.71 C12.06 304.78 11.98 304.83 11.91 304.87 C11.4 305.12 12.12 303.76 12.63 302.83
							 C13.09 302.01 13.38 301.53 13.71 300.98 C14.14 300.26 14.64 299.41 15.14 298.62 C15.71 297.73 16.28
							 296.91 16.98 295.85 C18.36 294.02 19.23 293.03 19.98 292.19 C21.17 290.86 22.1 289.88 23.22 288.74 C24.9
							 287.03 27.03 284.95 29.25 282.85 C30.78 281.41 32.35 279.95 34 278.59 C35.97 276.95 38.07 275.44 40.18
							 273.98 C42.2 272.59 44.24 271.24 46.37 269.96 C49.13 268.29 52.03 266.71 54.96 265.26 C58.81 263.34
							 62.71 261.62 66.75 260.03 C69.1 259.1 71.5 258.21 73.85 257.43 C78.59 255.85 83.16 254.67 88.21 253.22
							 C91.88 252.17 95.79 250.98 99.17 250.1 C102.63 249.21 105.53 248.64 109.34 247.71 C110.56 247.41 111.88
							 247.08 113.59 246.69 C114.54 246.47 115.61 246.23 116.09 246.49 C116.63 246.78 116.42 247.69 116.25
							 248.72 C116.15 249.28 116.07 249.88 116 250.39 C115.8 251.78 115.66 252.54 115.55 253.22 C115.34 254.46
							 115.21 255.42 114.9 256.96 C114.5 258.94 113.81 261.87 113.05 264.35 C112.39 266.47 111.68 268.24 110.86
							 270.13 C110.01 272.06 109.06 274.11 108.06 276.1 C106.73 278.75 105.31 281.3 104.15 283.37 C103.43 284.66
							 102.81 285.75 101.41 287.71 C100.58 288.88 99.48 290.34 98.67 291.39 C97.25 293.23 96.74 293.82 95.71
							 295.05 C94.33 296.73 92.01 299.59 90.09 301.7 C88.06 303.94 86.49 305.35 84.53 307.18 C83.06 308.56
							 81.38 310.17 79.81 311.61 C78.09 313.2 76.51 314.58 74.82 315.98 C71.43 318.8 67.61 321.69 64.23 324.79
							 C62.26 326.59 60.45 328.47 58.67 330.32 C56.65 332.41 54.67 334.48 52.75 336.75 C51.51 338.21 50.29
							 339.76 49.3 341.28 C48.55 342.41 47.93 343.52 47.22 344.75 C46.44 346.08 45.56 347.55 44.82 348.89 C43.64
							 350.99 42.79 352.76 42.02 355.53 C41.59 357.08 41.19 358.94 41.02 360.25 C40.87 361.3 40.88 361.99 40.88
							 362.48 C40.87 363.25 40.81 363.52 40.79 364.63 C40.77 364.99 40.78 365.44 40.78 365.75 C40.78 366.52
							 40.79 366.52 40.78 366.69 C40.78 366.9 40.75 367.34 40.75 367.77 C40.75 368.02 40.75 368.27 40.75 368.73
							 C40.78 369.03 40.78 369.07 40.78 369.12 C40.77 369.41 40.82 370.03 40.84 370.39 C40.87 370.7 40.88 370.8
							 40.9 371 C40.92 371.12 40.93 371.27 40.99 372.33 L41.02 372.79 C41.08 373.69 41.08 373.87 41.09 374.04
							 C41.11 374.83 41.14 375.18 41.17 375.44 C41.22 375.95 41.24 376.12 41.3 376.63 C41.43 377.63 41.75 379.93
							 42.22 381.68 C42.53 382.84 42.92 383.76 43.35 384.77 C44.09 386.52 44.96 388.52 46.03 390.34 C46.55
							 391.23 47.11 392.08 47.68 392.86 C48.14 393.5 48.59 394.1 49.03 394.7 C49.9 395.89 50.72 397.1 51.82
							 398.41 C52.42 399.13 53.11 399.88 53.66 400.47 C53.99 400.81 54.26 401.1 54.57 401.42 C55.08 401.94
							 55.67 402.53 56.29 403.11 C57.17 403.93 58.1 404.75 59.1 405.6 C59.95 406.32 60.84 407.07 61.71 407.75
							 C63.95 409.54 65.99 410.91 68.14 412.33 C69.15 413 70.19 413.69 71.38 414.31 C72.33 414.8 73.37 415.26
							 73.38 415 C73.38 414.78 72.61 414.03 71.95 413.33 C70.91 412.22 70.12 411.22 69.27 409.88 C68.85 409.22
							 68.41 408.49 68.04 407.82 C67.59 407.03 67.22 406.33 66.89 405.63 C66.05 403.86 65.48 402.1 65.09 400.36
							 C64.82 399.17 64.64 397.99 64.47 396.67 C64.2 394.61 63.95 392.21 63.85 390.01 C63.64 385.43 64.07 381.73
							 65.24 377.31 C65.99 374.45 67.06 371.28 68.27 368.5 C68.9 367.06 69.56 365.72 70.19 364.52 C70.42 364.06
							 70.65 363.63 70.88 363.23 C71.21 362.65 71.54 362.15 72.04 361.19 C72.14 361.03 72.28 360.79 72.41 360.56
							 C73.51 358.69 74.26 357.58 74.92 356.61 C75.81 355.31 76.55 354.28 77.59 352.94 C79.04 351.08 81.07
							 348.61 82.85 346.59 C84.28 344.96 85.55 343.62 87.06 342.09 C90.43 338.69 95.03 334.34 98.19 331.14
							 C100.36 328.95 101.85 327.3 103.96 325.01 C105.22 323.65 106.7 322.06 108.14 320.36 C110.72 317.33 113.19
							 313.98 115.11 311.24 C116.05 309.89 116.86 308.69 117.71 307.26 C120.22 303.05 123.09 296.8 124.81 291.98
							 C125.31 290.58 125.71 289.31 126.09 288.01 C128.23 280.69 129.7 272.83 128.68 263.58 C128.3 260.18 127.58
							 256.6 126.63 253.59 C125.69 250.62 124.52 248.2 123.54 246.94 C121.89 244.85 120.36 243.18 118.73 241.61
							 C117.52 240.44 116.26 239.32 115.17 238.45 C114.32 237.76 113.57 237.22 112.63 236.65 C110.67 235.47
							 107.86 234.14 105.07 233.31 C100.11 231.85 95.2 232 90.16 231.88 C86.13 231.78 82.02 231.51 77.89 230.99
							 C75.67 230.71 73.44 230.37 71.28 230.02 C67.02 229.35 63.03 228.69 59.02 227.53 C56.16 226.71 53.28
							 225.62 50.71 224.41 C48.23 223.24 46.02 221.96 43.72 220.44 C41.09 218.71 38.34 216.69 36.43 214.57
							 C35.32 213.34 34.5 212.09 33.97 210.47 C33.43 208.84 33.2 206.85 33.84 205.59 C34.27 204.73 35.11 204.22
							 36.28 203.63 C39.27 202.14 44.47 200.18 47.71 198.9 C49.78 198.09 51.05 197.56 52.43 196.88 C59.71 193.28
							 70 185.49 75.51 178.66 C77.01 176.72 77.13 176.55 77.26 176.37 C78.05 175.26 79.33 173.51 80.27 172.2
							 C81.81 170.06 82.48 169.09 83.34 167.84 C84.96 165.49 87.26 162.16 89.8 158.66 C91.25 156.67 92.78 154.62
							 94.03 153.17 C94.55 152.56 95.02 152.06 95.26 151.37 C95.91 149.56 95.03 146.47 94.33 143.48 C92.39
							 135.14 91.85 127.57 91.97 119.6 C92.06 113.67 92.51 107.51 93.4 101.42 C93.82 98.52 94.34 95.63 95.44
							 94.09 C96.23 92.98 97.32 92.57 98.7 92.81 C101.29 93.26 104.91 96.03 107.88 98.4 C109.96 100.05 111.72
							 101.52 113.56 103.15 C116.81 106.04 120.28 109.47 123.04 112.44 C125 114.56 126.6 116.44 128.21 118.39
							 C129.15 119.52 130.08 120.67 131.11 121.92 C131.75 122.7 132.42 123.52 133.19 124.62 C134.63 126.68
							 136.43 129.74 137.8 130.84 C138.62 131.5 139.28 131.46 139.87 131.39 C141.73 131.16 142.8 130.66 148.73
							 130.53 C152.16 130.45 157.21 130.5 159.72 130.7 C160.9 130.79 161.51 130.92 162.1 130.71 C163.56 130.19
							 164.78 127.55 166.26 125 C168.64 120.87 171.68 116.98 174.43 113.51 C176.98 110.29 179.28 107.43 181.88
							 104.72 C184.69 101.78 187.85 99.01 191.38 96.09 C193.46 94.38 195.67 92.62 197.46 92.52 C200.23 92.37
							 202 96.16 203.61 99.79 C206.15 105.54 208.26 110.9 209.87 116.83 C210.67 119.74 211.34 122.8 211.87
							 125.85 C212.98 132.16 213.47 138.46 213.5 145.32 C213.52 152.12 213.07 159.46 211.69 165.88 C211.15
							 168.41 210.46 170.8 209.91 172.72 C209.48 174.26 209.13 175.5 209.61 176.91 C210.39 179.24 213.42 182.03
							 215.75 184.96 C217.26 186.85 218.47 188.79 219.59 190.56 C223.81 197.25 226.62 201.44 230.26 209.18
							 C233.58 216.24 237.59 226.27 236.89 227.25 C236.51 227.77 234.8 225.72 229.23 225.14 C224.89 224.69
							 218.2 225.13 213.94 225.58 C209.83 226 207.97 226.43 205.61 227.1 C202.77 227.9 199.22 229.03 195.91
							 230.44 C191.79 232.2 188.05 234.39 185.1 236.39 C183.76 237.29 182.59 238.15 181.26 239.47 C180.46 240.25
							 179.61 241.19 178.93 241.24 C177.66 241.33 176.97 238.33 176.01 235.89 C174.69 232.51 172.85 230.17
							 171.02 227.92 C168.6 224.96 166.2 222.15 162.95 219.74 C160.13 217.65 156.67 215.85 153.76 214.38 C151.94
							 213.46 150.34 212.66 148.37 211.86 C145.18 210.55 141.02 209.21 137.12 208.14 C129.37 206.01 122.64
							 204.96 115.42 204.9 C111.15 204.86 106.71 205.17 102.41 205.86 C97.64 206.63 93.03 207.87 88.19 208.62
							 C82.17 209.55 75.78 209.72 69.34 209.86 C66.57 209.92 63.78 209.98 61.22 209.67 C59 209.41 56.95 208.87
							 55.89 209.82 C55.06 210.58 54.85 212.27 54.42 213.31 C53.97 214.43 53.26 214.79 53.19 215.17 C52.8 217.16
							 69.98 219.49 83.78 220.1 C95.57 220.62 104.9 219.88 113.23 221.45 C117.89 222.33 122.23 223.92 126.3
							 225.93 C129.43 227.47 132.4 229.26 134.84 231.3 C136.81 232.95 138.44 234.77 140.02 236.81 C141.15 238.28
							 142.25 239.86 143.22 241.57 C144.19 243.27 145.02 245.11 145.74 247.06 C147.17 250.92 148.14 255.22
							 148.58 259.47 C149.28 266.15 148.67 272.68 147.43 278.44 C146.82 281.31 146.04 283.98 145.15 286.82
							 C144.32 289.44 143.4 292.19 142.3 295.02 C140.52 299.59 138.31 304.34 136.31 308.14 C135.28 310.1 134.31
							 311.8 133.21 313.75 C131.48 316.82 129.44 320.49 127.63 323.82 C124.18 330.19 121.56 335.35 119.59 339.51
							 C118.27 342.4 118.15 342.72 118.03 343.04 C116.44 347.18 115.57 349.72 114.77 352.96 C113.55 357.94
							 112.48 364.56 112.25 370.02 C112.13 373.02 112.25 375.67 112.42 378.78 C112.58 381.73 112.77 385.1 113.26
							 388.2 C114.19 394.09 116.18 399.04 118.29 403.79 C119.29 406.03 120.32 408.23 121.47 410.41 C122.54
							 412.41 123.71 414.4 123.88 413.79 C124.07 413.09 122.92 408.94 122.2 405.38 C121.34 401.12 121.09 397.73
							 121 394.35 C120.9 390.74 120.98 387.15 121.23 383.53 C121.35 381.77 121.51 380.01 121.72 378.23 C122.17
							 374.46 122.85 370.65 123.77 366.9 C126.34 356.47 130.77 346.55 135.93 337.17 C138.43 332.62 141.11 328.2
							 143.66 323.92 C147.63 317.27 151.32 310.98 155.45 304.16 C158.37 299.35 161.5 294.28 164.22 289.58 C165.41
							 287.52 166.52 285.53 167.51 283.42 C168.43 281.45 169.26 279.38 170.01 277.69 C170.73 276.06 171.4 274.8
							 171.71 274.91 C172.53 275.19 171.01 284.78 169.68 291.92 C168.39 298.91 167.29 303.55 165.93 308.52
							 C164.83 312.56 163.55 316.81 162.41 321.02 C160.64 327.6 159.21 334.09 158.04 341.8 C156.98 348.69 156.12
							 356.56 155.99 362.66 C155.91 366.47 156.11 369.59 156.69 373.44 C157.26 377.14 158.18 381.52 159.17
							 385.1 C160.2 388.84 161.31 391.69 163.16 395.08 C164.95 398.38 167.45 402.17 169.9 405.12 C172.13 407.8
							 174.33 409.78 176.59 411.64 C181.72 415.87 187.18 419.51 195.7 421.45 C193.13 424.44 191.35 426.16 189.16
							 427.98 C187.07 429.71 184.61 431.52 182.25 433.06 C180.04 434.51 177.91 435.71 175.67 436.86 C168.98
							 440.32 161.29 443.32 154.28 445.23 C160.96 448.45 169.04 450.15 177.95 450.96 C183.87 451.51 190.16
							 451.67 195.54 451.34 C200.49 451.03 204.67 450.31 208.71 449.27 Z" class="st5"/>
			</g>
			<g id="shape13-11" v:mID="13" v:groupContext="shape" transform="translate(174.137,-87.6672)">
				<title>Ark.13</title>
				<path d="M0.33 467.85 C0.38 461.87 0.25 455.52 0.21 449.16 C0.19 446.3 0.19 443.43 0.19 440.58 C0.18 434.94 0.16
							 429.35 0.08 423.56 C0.01 418.4 -0.1 413.07 0.19 408.3 C0.36 405.48 0.68 402.85 1.71 400.63 C3.19 397.42
							 6.16 395.08 8.85 393.38 C8.88 390.78 8.89 388.43 8.89 386.16 C8.88 382.21 8.86 378.47 8.85 374.06 C8.85
							 368.68 8.87 362.31 9.54 357.35 C9.94 354.37 10.57 351.91 11.54 349.62 C13.48 345.04 16.78 341.16 19.41
							 338.23 C20.88 336.77 22.02 335.9 23.26 335.01 C24.63 334.02 26.12 332.99 27.67 332.09 C29.99 330.73
							 32.43 329.64 35.2 328.87 C41.55 327.11 49.61 327.07 56.07 328.53 C59.62 329.33 62.68 330.58 65.63 332.27
							 C67.47 333.31 69.26 334.53 70.87 335.88 C72.43 337.2 73.81 338.65 75.11 340.2 C75.98 341.24 76.81 342.33
							 77.63 343.53 C78.43 344.69 79.23 345.96 79.94 347.27 C81.24 349.67 82.27 352.22 82.83 354.5 C83.13 355.76
							 83.3 356.93 83.43 358.19 C83.96 363.31 83.97 369.96 83.98 376.25 C83.99 382.19 83.99 387.82 83.86 393.59
							 C85.84 394.43 87.41 396 88.7 397.55 C89.88 398.97 90.84 400.38 91.49 401.84 C92.17 403.36 92.52 404.94
							 92.66 406.89 C92.74 408.08 92.75 409.42 92.74 410.73 C92.74 412.13 92.72 413.5 92.71 414.82 C92.71 416.09
							 92.71 417.31 92.71 418.56 C92.72 420.62 92.71 422.74 92.71 424.91 C92.7 431.01 92.79 437.48 92.77 443.78
							 C92.76 449.42 92.68 454.92 92.84 460.9 C92.91 463.77 93.05 466.75 92.59 469.16 C92.24 471.01 91.53 472.53
							 90.63 473.95 C88.65 477.1 85.73 479.82 81.63 481 C78.19 481.99 73.92 481.89 69.86 481.84 C66.2 481.8
							 62.71 481.8 59.23 481.78 C51.52 481.75 43.86 481.65 36.17 481.51 C30.78 481.41 25.36 481.29 19.89 481.3
							 C17.6 481.31 15.29 481.33 13.2 481.13 C11.54 480.97 10.02 480.66 8.64 480.01 C6.41 478.97 4.56 477.05
							 3.16 475.21 C1.62 473.2 0.63 471.29 0.33 467.85 Z" class="st6"/>
			</g>
			<g id="shape14-13" v:mID="14" v:groupContext="shape" transform="translate(202.128,-176.293)">
				<title>Ark.14</title>
				<path d="M0 480.12 C0 479.05 0 478.87 0 478.7 C-0.02 474.76 0.05 471.57 0.06 467.13 C0.08 462.17 0.03 455.65 0.28
							 450.95 C0.42 448.38 0.65 446.35 1.63 444.25 C2.55 442.27 4.14 440.22 6.08 438.65 C8.23 436.92 10.79
							 435.78 13.45 435.18 C15.99 434.6 18.62 434.53 21.3 434.89 C23.08 435.12 24.88 435.55 26.49 436.18 C28.31
							 436.9 29.88 437.9 31.36 439.21 C32.76 440.46 34.08 442 35.01 443.57 C36.58 446.26 37 449.04 37.18 452.26
							 C37.33 454.99 37.32 458.04 37.32 460.89 C37.33 464.8 37.38 468.34 37.39 472.28 C37.4 475.5 37.39 478.99
							 37.39 481.86 C32.48 481.86 27.72 481.85 22.8 481.86 C21.12 481.86 19.42 481.86 17.72 481.86 C14.46 481.86
							 11.19 481.84 8.04 481.85 C5.42 481.86 2.88 481.89 0.16 481.8 C0.08 481.8 0 481.8 0 480.12 Z"
						class="st7"/>
			</g>
			<g id="shape15-15" v:mID="15" v:groupContext="shape" transform="translate(211.861,-116.025)">
				<title>Ark.15</title>
				<path d="M1.76 453.83 C1.04 454.87 0.9 455.15 0.78 455.4 C0.35 456.36 0.22 457.16 0.16 457.93 C0.04 459.76 0.35 461.5
							 1.34 463.13 C2.1 464.39 3.27 465.58 3.65 466.5 C3.84 466.98 3.83 467.38 3.78 467.83 C3.6 469.37 2.94
							 471.48 1.88 474.06 C0.88 476.51 -0.47 479.39 0.16 480.72 C0.97 482.42 4.96 481.63 9.14 481.69 C12.57
							 481.74 16.11 482.36 17.25 481.02 C18.67 479.35 16.36 474.65 14.94 471.53 C13.82 469.05 13.27 467.56
							 14.05 466.14 C14.83 464.72 16.95 463.37 17.53 460.85 C17.96 459.02 17.57 456.59 16.5 454.75 C15.62 453.25
							 14.28 452.15 12.92 451.45 C11.64 450.8 10.34 450.5 8.95 450.48 C7.63 450.45 6.23 450.67 5.09 451.16
							 C3.54 451.82 2.47 452.99 1.76 453.83 Z" class="st7"/>
			</g>
		</g>
	</g>
</svg>
