<?xml version="1.0" encoding="UTF-8" standalone="no"?>
<!DOCTYPE svg PUBLIC "-//W3C//DTD SVG 1.1//EN" "http://www.w3.org/Graphics/SVG/1.1/DTD/svg11.dtd">
<svg xmlns="http://www.w3.org/2000/svg" xmlns:xlink="http://www.w3.org/1999/xlink" xmlns:ev="http://www.w3.org/2001/xml-events"
		width="13.2in" height="5.1in" xml:space="preserve" color-interpolation-filters="sRGB"
		class="st7">
	<style type="text/css">
	<![CDATA[
		.st1 {fill:none;stroke:none;stroke-linecap:round;stroke-linejoin:round;stroke-width:0.75}
		.st2 {fill:#000000;font-family:-apple-system, BlinkMacSystemFont, "Segoe UI", Roboto, "Helvetica Neue", Arial, "Noto Sans", "Liberation Sans", sans-serif, "Apple Color Emoji", "Segoe UI Emoji", "Segoe UI Symbol", "Noto Color Emoji";font-size:27.0833em}
		.st3 {fill:#ef8310;font-family:-apple-system, BlinkMacSystemFont, "Segoe UI", Roboto, "Helvetica Neue", Arial, "Noto Sans", "Liberation Sans", sans-serif, "Apple Color Emoji", "Segoe UI Emoji", "Segoe UI Symbol", "Noto Color Emoji";font-size:10.6667em}
		.st4 {fill:#ef8310;stroke:#ef8310;stroke-linecap:round;stroke-linejoin:round;stroke-width:0.75}
		.st5 {fill:#000000;stroke:#000000;stroke-linecap:round;stroke-linejoin:round;stroke-width:0.75}
		.st6 {fill:#ffffff;stroke:#000000;stroke-linecap:round;stroke-linejoin:round;stroke-width:0.75}
		.st7 {fill:none;fill-rule:evenodd;font-size:12px;overflow:visible;stroke-linecap:square;stroke-miterlimit:3}
	]]>
	</style>

	<g>
		<title>Side-1</title>
		<g id="shape16-1" transform="translate(279.474,-145.751)">
			<title>Ark.16</title>
			<desc>FoxIDs</desc>
			<rect x="0" y="208.976" width="965.31" height="263.549" class="st1"/>
			<text x="4" y="438.25" class="st2">FoxIDs</text>		</g>
		<g id="shape17-4" transform="translate(300.847,-25.7765)">
			<title>Ark.17</title>
			<desc>Identity Services</desc>
			<rect x="0" y="370.478" width="943.937" height="102.047" class="st1"/>
			<text x="4" y="459.9" class="st3">Identity Services</text>		</g>
		<g id="group18-7" transform="translate(0.375,-29.5304)">
			<title>Ark.18</title>
			<g id="shape19-8">
				<title>Ark.19</title>
				<path d="M208.71 439.93 C202.52 444.36 197.93 448.2 192.9 451.57 C183.76 457.69 173.18 462.25 162.43 465.96 C152.36
							 469.43 142.13 472.17 130.74 472.53 C121.8 472.8 112.13 471.61 103.5 470.23 C89.12 467.94 77.58 465.14
							 64.34 459.38 C57 456.19 49.14 452.1 41.82 446.32 C35.86 441.61 30.25 435.78 26.04 430.96 C20.98 425.17
							 17.94 420.84 14.68 414.27 C12.6 410.08 10.44 404.98 8.52 400 C4.54 389.72 1.57 379.95 0.5 369.86 C-0.26
							 362.69 -0.06 355.35 0.49 348.08 C0.99 341.55 1.77 335.07 3.06 329.47 C6.25 315.66 12.58 307.26 23.65
							 291.74 C22.18 291.41 20.28 291.87 18.97 292.25 C18.7 292.33 18.46 292.4 18.2 292.49 C17.5 292.71 16.67
							 293.01 15.95 293.32 C15.04 293.72 14.3 294.13 13.53 294.54 C13.25 294.69 12.96 294.83 12.64 295.04 C12.48
							 295.15 12.31 295.27 12.15 295.38 C12.06 295.44 11.98 295.49 11.91 295.53 C11.4 295.78 12.12 294.42 12.63
							 293.5 C13.09 292.67 13.38 292.19 13.71 291.64 C14.14 290.92 14.64 290.07 15.14 289.28 C15.71 288.39
							 16.28 287.57 16.98 286.51 C18.36 284.68 19.23 283.69 19.98 282.85 C21.17 281.52 22.1 280.54 23.22 279.4
							 C24.9 277.69 27.03 275.61 29.25 273.51 C30.78 272.07 32.35 270.62 34 269.25 C35.97 267.61 38.07 266.1
							 40.18 264.64 C42.2 263.25 44.24 261.91 46.37 260.62 C49.13 258.95 52.03 257.37 54.96 255.92 C58.81 254
							 62.71 252.28 66.75 250.69 C69.1 249.76 71.5 248.88 73.85 248.09 C78.59 246.51 83.16 245.33 88.21 243.89
							 C91.88 242.84 95.79 241.64 99.17 240.77 C102.63 239.87 105.53 239.3 109.34 238.37 C110.56 238.07 111.88
							 237.74 113.59 237.35 C114.54 237.13 115.61 236.9 116.09 237.15 C116.63 237.44 116.42 238.35 116.25 239.38
							 C116.15 239.94 116.07 240.54 116 241.05 C115.8 242.44 115.66 243.2 115.55 243.88 C115.34 245.12 115.21
							 246.08 114.9 247.62 C114.5 249.6 113.81 252.54 113.05 255.01 C112.39 257.13 111.68 258.9 110.86 260.79
							 C110.01 262.72 109.06 264.77 108.06 266.76 C106.73 269.41 105.31 271.96 104.15 274.03 C103.43 275.32
							 102.81 276.42 101.41 278.38 C100.58 279.54 99.48 281 98.67 282.05 C97.25 283.89 96.74 284.48 95.71 285.72
							 C94.33 287.39 92.01 290.25 90.09 292.36 C88.06 294.6 86.49 296.01 84.53 297.84 C83.06 299.22 81.38 300.83
							 79.81 302.28 C78.09 303.86 76.51 305.24 74.82 306.64 C71.43 309.46 67.61 312.35 64.23 315.45 C62.26
							 317.26 60.45 319.13 58.67 320.98 C56.65 323.07 54.67 325.14 52.75 327.41 C51.51 328.87 50.29 330.42
							 49.3 331.94 C48.55 333.07 47.93 334.18 47.22 335.41 C46.44 336.75 45.56 338.21 44.82 339.55 C43.64 341.65
							 42.79 343.42 42.02 346.19 C41.59 347.74 41.19 349.6 41.02 350.91 C40.87 351.96 40.88 352.65 40.88 353.14
							 C40.87 353.92 40.81 354.18 40.79 355.3 C40.77 355.65 40.78 356.1 40.78 356.41 C40.78 357.18 40.79 357.18
							 40.78 357.36 C40.78 357.56 40.75 358 40.75 358.43 C40.75 358.68 40.75 358.93 40.75 359.39 C40.78 359.69
							 40.78 359.73 40.78 359.78 C40.77 360.07 40.82 360.69 40.84 361.05 C40.87 361.36 40.88 361.46 40.9 361.66
							 C40.92 361.78 40.93 361.93 40.99 362.99 L41.02 363.45 C41.08 364.35 41.08 364.54 41.09 364.7 C41.11
							 365.5 41.14 365.84 41.17 366.11 C41.22 366.61 41.24 366.79 41.3 367.3 C41.43 368.3 41.75 370.59 42.22
							 372.34 C42.53 373.5 42.92 374.43 43.35 375.43 C44.09 377.18 44.96 379.18 46.03 381 C46.55 381.89 47.11
							 382.74 47.68 383.53 C48.14 384.16 48.59 384.76 49.03 385.36 C49.9 386.55 50.72 387.76 51.82 389.07 C52.42
							 389.79 53.11 390.54 53.66 391.13 C53.99 391.47 54.26 391.76 54.57 392.08 C55.08 392.6 55.67 393.19 56.29
							 393.77 C57.17 394.59 58.1 395.41 59.1 396.26 C59.95 396.98 60.84 397.73 61.71 398.42 C63.95 400.2 65.99
							 401.57 68.14 403 C69.15 403.67 70.19 404.35 71.38 404.97 C72.33 405.46 73.37 405.92 73.38 405.66 C73.38
							 405.44 72.61 404.69 71.95 403.99 C70.91 402.88 70.12 401.88 69.27 400.54 C68.85 399.88 68.41 399.15
							 68.04 398.48 C67.59 397.69 67.22 396.99 66.89 396.29 C66.05 394.52 65.48 392.76 65.09 391.02 C64.82
							 389.83 64.64 388.65 64.47 387.33 C64.2 385.28 63.95 382.87 63.85 380.67 C63.64 376.09 64.07 372.39 65.24
							 367.98 C65.99 365.11 67.06 361.94 68.27 359.16 C68.9 357.72 69.56 356.39 70.19 355.18 C70.42 354.72
							 70.65 354.29 70.88 353.89 C71.21 353.31 71.54 352.81 72.04 351.85 C72.14 351.69 72.28 351.45 72.41 351.22
							 C73.51 349.35 74.26 348.24 74.92 347.27 C75.81 345.98 76.55 344.94 77.59 343.61 C79.04 341.74 81.07
							 339.27 82.85 337.25 C84.28 335.62 85.55 334.28 87.06 332.75 C90.43 329.35 95.03 325 98.19 321.8 C100.36
							 319.61 101.85 317.96 103.96 315.67 C105.22 314.31 106.7 312.72 108.14 311.02 C110.72 308 113.19 304.64
							 115.11 301.9 C116.05 300.55 116.86 299.36 117.71 297.93 C120.22 293.71 123.09 287.47 124.81 282.64 C125.31
							 281.24 125.71 279.97 126.09 278.68 C128.23 271.36 129.7 263.49 128.68 254.24 C128.3 250.85 127.58 247.26
							 126.63 244.25 C125.69 241.28 124.52 238.86 123.54 237.61 C121.89 235.51 120.36 233.84 118.73 232.28
							 C117.52 231.1 116.26 229.98 115.17 229.11 C114.32 228.42 113.57 227.88 112.63 227.31 C110.67 226.13
							 107.86 224.8 105.07 223.97 C100.11 222.51 95.2 222.66 90.16 222.54 C86.13 222.44 82.02 222.17 77.89
							 221.65 C75.67 221.37 73.44 221.03 71.28 220.68 C67.02 220.01 63.03 219.35 59.02 218.19 C56.16 217.37
							 53.28 216.28 50.71 215.07 C48.23 213.9 46.02 212.62 43.72 211.1 C41.09 209.37 38.34 207.35 36.43 205.23
							 C35.32 204.01 34.5 202.75 33.97 201.13 C33.43 199.5 33.2 197.51 33.84 196.25 C34.27 195.4 35.11 194.88
							 36.28 194.29 C39.27 192.8 44.47 190.84 47.71 189.57 C49.78 188.75 51.05 188.22 52.43 187.54 C59.71 183.95
							 70 176.15 75.51 169.32 C77.01 167.38 77.13 167.21 77.26 167.03 C78.05 165.92 79.33 164.17 80.27 162.86
							 C81.81 160.72 82.48 159.75 83.34 158.5 C84.96 156.15 87.26 152.82 89.8 149.33 C91.25 147.33 92.78 145.29
							 94.03 143.83 C94.55 143.22 95.02 142.72 95.26 142.03 C95.91 140.22 95.03 137.13 94.33 134.14 C92.39
							 125.81 91.85 118.23 91.97 110.26 C92.06 104.33 92.51 98.18 93.4 92.08 C93.82 89.18 94.34 86.29 95.44
							 84.75 C96.23 83.64 97.32 83.23 98.7 83.47 C101.29 83.92 104.91 86.69 107.88 89.06 C109.96 90.71 111.72
							 92.18 113.56 93.81 C116.81 96.7 120.28 100.13 123.04 103.1 C125 105.22 126.6 107.1 128.21 109.05 C129.15
							 110.18 130.08 111.33 131.11 112.59 C131.75 113.36 132.42 114.18 133.19 115.28 C134.63 117.34 136.43
							 120.4 137.8 121.5 C138.62 122.17 139.28 122.12 139.87 122.05 C141.73 121.82 142.8 121.32 148.73 121.19
							 C152.16 121.11 157.21 121.16 159.72 121.36 C160.9 121.45 161.51 121.58 162.1 121.37 C163.56 120.85 164.78
							 118.21 166.26 115.66 C168.64 111.53 171.68 107.64 174.43 104.17 C176.98 100.96 179.28 98.1 181.88 95.38
							 C184.69 92.44 187.85 89.67 191.38 86.76 C193.46 85.04 195.67 83.28 197.46 83.18 C200.23 83.03 202 86.82
							 203.61 90.45 C206.15 96.2 208.26 101.56 209.87 107.49 C210.67 110.41 211.34 113.46 211.87 116.51 C212.98
							 122.82 213.47 129.12 213.5 135.99 C213.52 142.78 213.07 150.12 211.69 156.55 C211.15 159.07 210.46 161.46
							 209.91 163.38 C209.48 164.92 209.13 166.16 209.61 167.57 C210.39 169.91 213.42 172.69 215.75 175.62
							 C217.26 177.51 218.47 179.45 219.59 181.22 C223.81 187.91 226.62 192.1 230.26 199.84 C233.58 206.91
							 237.59 216.94 236.89 217.91 C236.51 218.43 234.8 216.38 229.23 215.8 C224.89 215.35 218.2 215.79 213.94
							 216.24 C209.83 216.67 207.97 217.1 205.61 217.76 C202.77 218.56 199.22 219.69 195.91 221.1 C191.79 222.86
							 188.05 225.05 185.1 227.05 C183.76 227.95 182.59 228.81 181.26 230.13 C180.46 230.91 179.61 231.85 178.93
							 231.9 C177.66 231.99 176.97 229 176.01 226.55 C174.69 223.17 172.85 220.83 171.02 218.58 C168.6 215.62
							 166.2 212.82 162.95 210.4 C160.13 208.31 156.67 206.51 153.76 205.04 C151.94 204.12 150.34 203.32 148.37
							 202.52 C145.18 201.21 141.02 199.87 137.12 198.8 C129.37 196.67 122.64 195.62 115.42 195.56 C111.15
							 195.52 106.71 195.83 102.41 196.53 C97.64 197.3 93.03 198.54 88.19 199.28 C82.17 200.21 75.78 200.38
							 69.34 200.52 C66.57 200.58 63.78 200.64 61.22 200.33 C59 200.07 56.95 199.54 55.89 200.49 C55.06 201.24
							 54.85 202.94 54.42 203.98 C53.97 205.09 53.26 205.45 53.19 205.83 C52.8 207.82 69.98 210.15 83.78 210.76
							 C95.57 211.28 104.9 210.55 113.23 212.11 C117.89 212.99 122.23 214.58 126.3 216.59 C129.43 218.13 132.4
							 219.92 134.84 221.96 C136.81 223.61 138.44 225.43 140.02 227.48 C141.15 228.94 142.25 230.52 143.22
							 232.23 C144.19 233.94 145.02 235.77 145.74 237.72 C147.17 241.58 148.14 245.89 148.58 250.13 C149.28
							 256.81 148.67 263.34 147.43 269.11 C146.82 271.97 146.04 274.64 145.15 277.48 C144.32 280.1 143.4 282.85
							 142.3 285.68 C140.52 290.25 138.31 295 136.31 298.8 C135.28 300.76 134.31 302.46 133.21 304.41 C131.48
							 307.48 129.44 311.15 127.63 314.49 C124.18 320.85 121.56 326.01 119.59 330.17 C118.27 333.06 118.15
							 333.39 118.03 333.7 C116.44 337.84 115.57 340.38 114.77 343.62 C113.55 348.6 112.48 355.23 112.25 360.68
							 C112.13 363.69 112.25 366.33 112.42 369.44 C112.58 372.39 112.77 375.76 113.26 378.86 C114.19 384.75
							 116.18 389.71 118.29 394.45 C119.29 396.69 120.32 398.89 121.47 401.07 C122.54 403.07 123.71 405.06
							 123.88 404.45 C124.07 403.75 122.92 399.6 122.2 396.04 C121.34 391.78 121.09 388.39 121 385.01 C120.9
							 381.4 120.98 377.81 121.23 374.19 C121.35 372.43 121.51 370.67 121.72 368.89 C122.17 365.12 122.85 361.31
							 123.77 357.56 C126.34 347.14 130.77 337.21 135.93 327.83 C138.43 323.28 141.11 318.86 143.66 314.58
							 C147.63 307.94 151.32 301.64 155.45 294.82 C158.37 290.01 161.5 284.94 164.22 280.24 C165.41 278.18
							 166.52 276.19 167.51 274.08 C168.43 272.11 169.26 270.04 170.01 268.35 C170.73 266.72 171.4 265.46 171.71
							 265.57 C172.53 265.85 171.01 275.44 169.68 282.59 C168.39 289.57 167.29 294.21 165.93 299.18 C164.83
							 303.22 163.55 307.47 162.41 311.69 C160.64 318.26 159.21 324.75 158.04 332.46 C156.98 339.35 156.12
							 347.22 155.99 353.32 C155.91 357.13 156.11 360.25 156.69 364.1 C157.26 367.81 158.18 372.19 159.17 375.76
							 C160.2 379.5 161.31 382.36 163.16 385.75 C164.95 389.04 167.45 392.83 169.9 395.78 C172.13 398.46 174.33
							 400.44 176.59 402.31 C181.72 406.53 187.18 410.17 195.7 412.12 C193.13 415.1 191.35 416.82 189.16 418.64
							 C187.07 420.37 184.61 422.18 182.25 423.72 C180.04 425.17 177.91 426.37 175.67 427.53 C168.98 430.98
							 161.29 433.99 154.28 435.89 C160.96 439.12 169.04 440.81 177.95 441.63 C183.87 442.17 190.16 442.33
							 195.54 442 C200.49 441.69 204.67 440.98 208.71 439.93 Z" class="st4"/>
			</g>
			<g id="shape20-10" transform="translate(174.137,-87.6672)">
				<title>Ark.20</title>
				<path d="M0.33 458.51 C0.38 452.54 0.25 446.18 0.21 439.82 C0.19 436.96 0.19 434.09 0.19 431.24 C0.18 425.6 0.16
							 420.01 0.08 414.22 C0.01 409.06 -0.1 403.74 0.19 398.96 C0.36 396.14 0.68 393.51 1.71 391.29 C3.19 388.08
							 6.16 385.75 8.85 384.04 C8.88 381.44 8.89 379.1 8.89 376.82 C8.88 372.87 8.86 369.13 8.85 364.72 C8.85
							 359.34 8.87 352.97 9.54 348.01 C9.94 345.04 10.57 342.57 11.54 340.28 C13.48 335.7 16.78 331.82 19.41
							 328.9 C20.88 327.43 22.02 326.56 23.26 325.67 C24.63 324.68 26.12 323.66 27.67 322.75 C29.99 321.4 32.43
							 320.3 35.2 319.53 C41.55 317.78 49.61 317.73 56.07 319.19 C59.62 319.99 62.68 321.24 65.63 322.93 C67.47
							 323.98 69.26 325.19 70.87 326.54 C72.43 327.86 73.81 329.31 75.11 330.86 C75.98 331.9 76.81 332.99 77.63
							 334.19 C78.43 335.35 79.23 336.62 79.94 337.93 C81.24 340.33 82.27 342.88 82.83 345.17 C83.13 346.42
							 83.3 347.59 83.43 348.86 C83.96 353.98 83.97 360.62 83.98 366.91 C83.99 372.85 83.99 378.48 83.86 384.25
							 C85.84 385.09 87.41 386.66 88.7 388.21 C89.88 389.63 90.84 391.04 91.49 392.5 C92.17 394.02 92.52 395.6
							 92.66 397.55 C92.74 398.74 92.75 400.08 92.74 401.39 C92.74 402.79 92.72 404.16 92.71 405.48 C92.71
							 406.75 92.71 407.97 92.71 409.23 C92.72 411.28 92.71 413.4 92.71 415.58 C92.7 421.67 92.79 428.14 92.77
							 434.44 C92.76 440.08 92.68 445.58 92.84 451.56 C92.91 454.43 93.05 457.41 92.59 459.82 C92.24 461.68
							 91.53 463.19 90.63 464.62 C88.65 467.76 85.73 470.48 81.63 471.66 C78.19 472.65 73.92 472.55 69.86 472.5
							 C66.2 472.46 62.71 472.46 59.23 472.44 C51.52 472.41 43.86 472.31 36.17 472.17 C30.78 472.07 25.36 471.95
							 19.89 471.96 C17.6 471.97 15.29 472 13.2 471.79 C11.54 471.63 10.02 471.32 8.64 470.67 C6.41 469.63
							 4.56 467.71 3.16 465.88 C1.62 463.86 0.63 461.95 0.33 458.51 Z" class="st5"/>
			</g>
			<g id="shape21-12" transform="translate(202.128,-176.293)">
				<title>Ark.21</title>
				<path d="M0 470.78 C0 469.71 0 469.53 0 469.36 C-0.02 465.42 0.05 462.23 0.06 457.79 C0.08 452.83 0.03 446.31 0.28
							 441.61 C0.42 439.04 0.65 437.01 1.63 434.91 C2.55 432.93 4.14 430.88 6.08 429.31 C8.23 427.58 10.79
							 426.44 13.45 425.84 C15.99 425.26 18.62 425.19 21.3 425.55 C23.08 425.78 24.88 426.21 26.49 426.84 C28.31
							 427.56 29.88 428.56 31.36 429.87 C32.76 431.13 34.08 432.66 35.01 434.24 C36.58 436.92 37 439.7 37.18
							 442.93 C37.33 445.65 37.32 448.7 37.32 451.55 C37.33 455.46 37.38 459 37.39 462.94 C37.4 466.16 37.39
							 469.65 37.39 472.52 C32.48 472.52 27.72 472.52 22.8 472.52 C21.12 472.52 19.42 472.52 17.72 472.52 C14.46
							 472.52 11.19 472.5 8.04 472.51 C5.42 472.52 2.88 472.55 0.16 472.46 C0.08 472.46 0 472.46 0 470.78 Z"
						class="st6"/>
			</g>
			<g id="shape22-14" transform="translate(211.861,-116.025)">
				<title>Ark.22</title>
				<path d="M1.76 444.49 C1.04 445.54 0.9 445.81 0.78 446.07 C0.35 447.03 0.22 447.82 0.16 448.59 C0.04 450.42 0.35
							 452.16 1.34 453.8 C2.1 455.05 3.27 456.24 3.65 457.17 C3.84 457.64 3.83 458.04 3.78 458.49 C3.6 460.04
							 2.94 462.14 1.88 464.72 C0.88 467.17 -0.47 470.05 0.16 471.38 C0.97 473.08 4.96 472.29 9.14 472.35 C12.57
							 472.4 16.11 473.02 17.25 471.68 C18.67 470.02 16.36 465.31 14.94 462.19 C13.82 459.71 13.27 458.22 14.05
							 456.81 C14.83 455.38 16.95 454.03 17.53 451.51 C17.96 449.68 17.57 447.25 16.5 445.41 C15.62 443.91
							 14.28 442.81 12.92 442.12 C11.64 441.46 10.34 441.16 8.95 441.14 C7.63 441.11 6.23 441.33 5.09 441.82
							 C3.54 442.48 2.47 443.65 1.76 444.49 Z" class="st6"/>
			</g>
		</g>
	</g>
</svg>
