<?xml version="1.0" encoding="UTF-8" standalone="no"?>
<!DOCTYPE svg PUBLIC "-//W3C//DTD SVG 1.1//EN" "http://www.w3.org/Graphics/SVG/1.1/DTD/svg11.dtd">
<svg xmlns="http://www.w3.org/2000/svg" xmlns:xlink="http://www.w3.org/1999/xlink" xmlns:ev="http://www.w3.org/2001/xml-events"
		xmlns:v="http://schemas.microsoft.com/visio/2003/SVGExtensions/" width="13.2in" height="5.1in" xml:space="preserve" color-interpolation-filters="sRGB" class="st7">
	<v:documentProperties v:langID="1033" v:metric="true" v:viewMarkup="false">
		<v:userDefs>
			<v:ud v:nameU="Ifc__CustomPropsLevel" v:val="VT0(0):26"/>
		</v:userDefs>
	</v:documentProperties>

	<style type="text/css">
	<![CDATA[
		.st1 {fill:none;stroke:none;stroke-linecap:round;stroke-linejoin:round;stroke-width:0.75}
		.st2 {fill:#000000;font-family:Segoe UI;font-size:27.0833em}
		.st3 {fill:#ef8310;font-family:Segoe UI;font-size:11.3333em}
		.st4 {fill:#ef8310;stroke:#ef8310;stroke-linecap:round;stroke-linejoin:round;stroke-width:0.75}
		.st5 {fill:#000000;stroke:#000000;stroke-linecap:round;stroke-linejoin:round;stroke-width:0.75}
		.st6 {fill:#ffffff;stroke:#000000;stroke-linecap:round;stroke-linejoin:round;stroke-width:0.75}
		.st7 {fill:none;fill-rule:evenodd;font-size:12px;overflow:visible;stroke-linecap:square;stroke-miterlimit:3}
	]]>
	</style>

	<g v:mID="0" v:index="1" v:groupContext="foregroundPage">
		<title>Side-1</title>
		<v:pageProperties v:drawingScale="39.3701" v:pageScale="0.787402" v:drawingUnits="6" v:shadowOffsetX="8.50394"
				v:shadowOffsetY="-8.50394"/>
		<g id="shape16-1" v:mID="16" v:groupContext="shape" transform="translate(279.474,-150.551)">
			<title>Ark.16</title>
			<desc>FoxIDs</desc>
			<v:textBlock v:margins="rect(4,4,4,4)" v:tabSpace="42.5197"/>
			<v:textRect cx="482.655" cy="345.551" width="965.32" height="263.549"/>
			<rect x="0" y="213.776" width="965.31" height="263.549" class="st1"/>
			<text x="4" y="443.05" class="st2" v:langID="2057"><v:paragraph/><v:tabList/>FoxIDs</text>		</g>
		<g id="shape17-4" v:mID="17" v:groupContext="shape" transform="translate(300.847,-30.5764)">
			<title>Ark.17</title>
			<desc>Identity Service</desc>
			<v:textBlock v:margins="rect(4,4,4,4)" v:tabSpace="42.5197"/>
			<v:textRect cx="471.968" cy="426.302" width="943.94" height="102.047"/>
			<rect x="0" y="375.278" width="943.937" height="102.047" class="st1"/>
			<text x="4" y="467.1" class="st3" v:langID="2057"><v:paragraph/><v:tabList/>Identity Service</text>		</g>
		<g id="group18-7" transform="translate(0.375,-34.3303)" v:mID="18" v:groupContext="group">
			<title>Ark.18</title>
			<g id="shape19-8" v:mID="19" v:groupContext="shape">
				<title>Ark.19</title>
				<path d="M208.71 444.73 C202.52 449.16 197.93 453 192.9 456.37 C183.76 462.49 173.18 467.05 162.43 470.76 C152.36
							 474.23 142.13 476.97 130.74 477.33 C121.8 477.6 112.13 476.41 103.5 475.03 C89.12 472.74 77.58 469.94
							 64.34 464.18 C57 460.99 49.14 456.9 41.82 451.12 C35.86 446.41 30.25 440.58 26.04 435.76 C20.98 429.97
							 17.94 425.64 14.68 419.07 C12.6 414.88 10.44 409.78 8.52 404.8 C4.54 394.52 1.57 384.75 0.5 374.66 C-0.26
							 367.49 -0.06 360.15 0.49 352.88 C0.99 346.35 1.77 339.87 3.06 334.27 C6.25 320.46 12.58 312.06 23.65
							 296.54 C22.18 296.21 20.28 296.67 18.97 297.05 C18.7 297.13 18.46 297.2 18.2 297.29 C17.5 297.51 16.67
							 297.81 15.95 298.12 C15.04 298.52 14.3 298.93 13.53 299.34 C13.25 299.49 12.96 299.63 12.64 299.84 C12.48
							 299.95 12.31 300.07 12.15 300.18 C12.06 300.24 11.98 300.29 11.91 300.33 C11.4 300.58 12.12 299.22 12.63
							 298.3 C13.09 297.47 13.38 296.99 13.71 296.44 C14.14 295.72 14.64 294.87 15.14 294.08 C15.71 293.19
							 16.28 292.37 16.98 291.31 C18.36 289.48 19.23 288.49 19.98 287.65 C21.17 286.32 22.1 285.34 23.22 284.2
							 C24.9 282.49 27.03 280.41 29.25 278.31 C30.78 276.87 32.35 275.42 34 274.05 C35.97 272.41 38.07 270.9
							 40.18 269.44 C42.2 268.05 44.24 266.71 46.37 265.42 C49.13 263.75 52.03 262.17 54.96 260.72 C58.81 258.8
							 62.71 257.08 66.75 255.49 C69.1 254.56 71.5 253.67 73.85 252.89 C78.59 251.31 83.16 250.13 88.21 248.69
							 C91.88 247.64 95.79 246.44 99.17 245.57 C102.63 244.67 105.53 244.1 109.34 243.17 C110.56 242.87 111.88
							 242.54 113.59 242.15 C114.54 241.93 115.61 241.7 116.09 241.95 C116.63 242.24 116.42 243.15 116.25 244.18
							 C116.15 244.74 116.07 245.34 116 245.85 C115.8 247.24 115.66 248 115.55 248.68 C115.34 249.92 115.21
							 250.88 114.9 252.42 C114.5 254.4 113.81 257.34 113.05 259.81 C112.39 261.93 111.68 263.7 110.86 265.59
							 C110.01 267.52 109.06 269.57 108.06 271.56 C106.73 274.21 105.31 276.76 104.15 278.83 C103.43 280.12
							 102.81 281.22 101.41 283.18 C100.58 284.34 99.48 285.8 98.67 286.85 C97.25 288.69 96.74 289.28 95.71
							 290.52 C94.33 292.19 92.01 295.05 90.09 297.16 C88.06 299.4 86.49 300.81 84.53 302.64 C83.06 304.02
							 81.38 305.63 79.81 307.08 C78.09 308.66 76.51 310.04 74.82 311.44 C71.43 314.26 67.61 317.15 64.23 320.25
							 C62.26 322.06 60.45 323.93 58.67 325.78 C56.65 327.87 54.67 329.94 52.75 332.21 C51.51 333.67 50.29
							 335.22 49.3 336.74 C48.55 337.87 47.93 338.98 47.22 340.21 C46.44 341.55 45.56 343.01 44.82 344.35 C43.64
							 346.45 42.79 348.22 42.02 350.99 C41.59 352.54 41.19 354.4 41.02 355.71 C40.87 356.76 40.88 357.45 40.88
							 357.94 C40.87 358.72 40.81 358.98 40.79 360.1 C40.77 360.45 40.78 360.9 40.78 361.21 C40.78 361.98 40.79
							 361.98 40.78 362.16 C40.78 362.36 40.75 362.8 40.75 363.23 C40.75 363.48 40.75 363.73 40.75 364.19 C40.78
							 364.49 40.78 364.53 40.78 364.58 C40.77 364.87 40.82 365.49 40.84 365.85 C40.87 366.16 40.88 366.26
							 40.9 366.46 C40.92 366.58 40.93 366.73 40.99 367.79 L41.02 368.25 C41.08 369.15 41.08 369.34 41.09 369.5
							 C41.11 370.3 41.14 370.64 41.17 370.91 C41.22 371.41 41.24 371.59 41.3 372.1 C41.43 373.1 41.75 375.39
							 42.22 377.14 C42.53 378.3 42.92 379.23 43.35 380.23 C44.09 381.98 44.96 383.98 46.03 385.8 C46.55 386.69
							 47.11 387.54 47.68 388.33 C48.14 388.96 48.59 389.56 49.03 390.16 C49.9 391.35 50.72 392.56 51.82 393.87
							 C52.42 394.59 53.11 395.34 53.66 395.93 C53.99 396.27 54.26 396.56 54.57 396.88 C55.08 397.4 55.67 397.99
							 56.29 398.57 C57.17 399.39 58.1 400.21 59.1 401.06 C59.95 401.78 60.84 402.53 61.71 403.22 C63.95 405
							 65.99 406.37 68.14 407.8 C69.15 408.47 70.19 409.15 71.38 409.77 C72.33 410.26 73.37 410.72 73.38 410.46
							 C73.38 410.24 72.61 409.49 71.95 408.79 C70.91 407.68 70.12 406.68 69.27 405.34 C68.85 404.68 68.41
							 403.95 68.04 403.28 C67.59 402.49 67.22 401.79 66.89 401.09 C66.05 399.32 65.48 397.56 65.09 395.82
							 C64.82 394.63 64.64 393.45 64.47 392.13 C64.2 390.08 63.95 387.67 63.85 385.47 C63.64 380.89 64.07 377.19
							 65.24 372.78 C65.99 369.91 67.06 366.74 68.27 363.96 C68.9 362.52 69.56 361.19 70.19 359.98 C70.42 359.52
							 70.65 359.09 70.88 358.69 C71.21 358.11 71.54 357.61 72.04 356.65 C72.14 356.49 72.28 356.25 72.41 356.02
							 C73.51 354.15 74.26 353.04 74.92 352.07 C75.81 350.78 76.55 349.74 77.59 348.41 C79.04 346.54 81.07
							 344.07 82.85 342.05 C84.28 340.42 85.55 339.08 87.06 337.55 C90.43 334.15 95.03 329.8 98.19 326.6 C100.36
							 324.41 101.85 322.76 103.96 320.47 C105.22 319.11 106.7 317.52 108.14 315.82 C110.72 312.8 113.19 309.44
							 115.11 306.7 C116.05 305.35 116.86 304.15 117.71 302.73 C120.22 298.51 123.09 292.27 124.81 287.44 C125.31
							 286.04 125.71 284.77 126.09 283.48 C128.23 276.16 129.7 268.29 128.68 259.04 C128.3 255.65 127.58 252.06
							 126.63 249.05 C125.69 246.08 124.52 243.66 123.54 242.41 C121.89 240.31 120.36 238.64 118.73 237.08
							 C117.52 235.9 116.26 234.78 115.17 233.91 C114.32 233.22 113.57 232.68 112.63 232.11 C110.67 230.93
							 107.86 229.6 105.07 228.77 C100.11 227.31 95.2 227.46 90.16 227.34 C86.13 227.24 82.02 226.97 77.89
							 226.45 C75.67 226.17 73.44 225.83 71.28 225.48 C67.02 224.81 63.03 224.15 59.02 222.99 C56.16 222.17
							 53.28 221.08 50.71 219.87 C48.23 218.7 46.02 217.42 43.72 215.9 C41.09 214.17 38.34 212.15 36.43 210.03
							 C35.32 208.81 34.5 207.55 33.97 205.93 C33.43 204.3 33.2 202.31 33.84 201.05 C34.27 200.2 35.11 199.68
							 36.28 199.09 C39.27 197.6 44.47 195.64 47.71 194.37 C49.78 193.55 51.05 193.02 52.43 192.34 C59.71 188.75
							 70 180.95 75.51 174.12 C77.01 172.18 77.13 172.01 77.26 171.83 C78.05 170.72 79.33 168.97 80.27 167.66
							 C81.81 165.52 82.48 164.55 83.34 163.3 C84.96 160.95 87.26 157.62 89.8 154.13 C91.25 152.13 92.78 150.09
							 94.03 148.63 C94.55 148.02 95.02 147.52 95.26 146.83 C95.91 145.02 95.03 141.93 94.33 138.94 C92.39
							 130.61 91.85 123.03 91.97 115.06 C92.06 109.13 92.51 102.98 93.4 96.88 C93.82 93.98 94.34 91.09 95.44
							 89.55 C96.23 88.44 97.32 88.03 98.7 88.27 C101.29 88.72 104.91 91.49 107.88 93.86 C109.96 95.51 111.72
							 96.98 113.56 98.61 C116.81 101.5 120.28 104.93 123.04 107.9 C125 110.02 126.6 111.9 128.21 113.85 C129.15
							 114.98 130.08 116.13 131.11 117.39 C131.75 118.16 132.42 118.98 133.19 120.08 C134.63 122.14 136.43
							 125.2 137.8 126.3 C138.62 126.97 139.28 126.92 139.87 126.85 C141.73 126.62 142.8 126.12 148.73 125.99
							 C152.16 125.91 157.21 125.96 159.72 126.16 C160.9 126.25 161.51 126.38 162.1 126.17 C163.56 125.65 164.78
							 123.01 166.26 120.46 C168.64 116.33 171.68 112.44 174.43 108.97 C176.98 105.76 179.28 102.9 181.88 100.18
							 C184.69 97.24 187.85 94.47 191.38 91.56 C193.46 89.84 195.67 88.08 197.46 87.98 C200.23 87.83 202 91.62
							 203.61 95.25 C206.15 101 208.26 106.36 209.87 112.29 C210.67 115.21 211.34 118.26 211.87 121.31 C212.98
							 127.62 213.47 133.92 213.5 140.79 C213.52 147.58 213.07 154.92 211.69 161.35 C211.15 163.87 210.46 166.26
							 209.91 168.18 C209.48 169.72 209.13 170.96 209.61 172.37 C210.39 174.71 213.42 177.49 215.75 180.42
							 C217.26 182.31 218.47 184.25 219.59 186.02 C223.81 192.71 226.62 196.9 230.26 204.64 C233.58 211.71
							 237.59 221.74 236.89 222.71 C236.51 223.23 234.8 221.18 229.23 220.6 C224.89 220.15 218.2 220.59 213.94
							 221.04 C209.83 221.47 207.97 221.9 205.61 222.56 C202.77 223.36 199.22 224.49 195.91 225.9 C191.79 227.66
							 188.05 229.85 185.1 231.85 C183.76 232.75 182.59 233.61 181.26 234.93 C180.46 235.71 179.61 236.65 178.93
							 236.7 C177.66 236.79 176.97 233.8 176.01 231.35 C174.69 227.97 172.85 225.63 171.02 223.38 C168.6 220.42
							 166.2 217.62 162.95 215.2 C160.13 213.11 156.67 211.31 153.76 209.84 C151.94 208.92 150.34 208.12 148.37
							 207.32 C145.18 206.01 141.02 204.67 137.12 203.6 C129.37 201.47 122.64 200.42 115.42 200.36 C111.15
							 200.32 106.71 200.63 102.41 201.33 C97.64 202.1 93.03 203.34 88.19 204.08 C82.17 205.01 75.78 205.18
							 69.34 205.32 C66.57 205.38 63.78 205.44 61.22 205.13 C59 204.87 56.95 204.34 55.89 205.29 C55.06 206.04
							 54.85 207.74 54.42 208.78 C53.97 209.89 53.26 210.25 53.19 210.63 C52.8 212.62 69.98 214.95 83.78 215.56
							 C95.57 216.08 104.9 215.35 113.23 216.91 C117.89 217.79 122.23 219.38 126.3 221.39 C129.43 222.93 132.4
							 224.72 134.84 226.76 C136.81 228.41 138.44 230.23 140.02 232.28 C141.15 233.74 142.25 235.32 143.22
							 237.03 C144.19 238.74 145.02 240.57 145.74 242.52 C147.17 246.38 148.14 250.69 148.58 254.93 C149.28
							 261.61 148.67 268.14 147.43 273.91 C146.82 276.77 146.04 279.44 145.15 282.28 C144.32 284.9 143.4 287.65
							 142.3 290.48 C140.52 295.05 138.31 299.8 136.31 303.6 C135.28 305.56 134.31 307.26 133.21 309.21 C131.48
							 312.28 129.44 315.95 127.63 319.29 C124.18 325.65 121.56 330.81 119.59 334.97 C118.27 337.86 118.15
							 338.19 118.03 338.5 C116.44 342.64 115.57 345.18 114.77 348.42 C113.55 353.4 112.48 360.03 112.25 365.48
							 C112.13 368.49 112.25 371.13 112.42 374.24 C112.58 377.19 112.77 380.56 113.26 383.66 C114.19 389.55
							 116.18 394.51 118.29 399.25 C119.29 401.49 120.32 403.69 121.47 405.87 C122.54 407.87 123.71 409.86
							 123.88 409.25 C124.07 408.55 122.92 404.4 122.2 400.84 C121.34 396.58 121.09 393.19 121 389.81 C120.9
							 386.2 120.98 382.61 121.23 378.99 C121.35 377.23 121.51 375.47 121.72 373.69 C122.17 369.92 122.85 366.11
							 123.77 362.36 C126.34 351.94 130.77 342.01 135.93 332.63 C138.43 328.08 141.11 323.66 143.66 319.38
							 C147.63 312.74 151.32 306.44 155.45 299.62 C158.37 294.81 161.5 289.74 164.22 285.04 C165.41 282.98
							 166.52 280.99 167.51 278.88 C168.43 276.91 169.26 274.84 170.01 273.15 C170.73 271.52 171.4 270.26 171.71
							 270.37 C172.53 270.65 171.01 280.24 169.68 287.39 C168.39 294.37 167.29 299.01 165.93 303.98 C164.83
							 308.02 163.55 312.27 162.41 316.49 C160.64 323.06 159.21 329.55 158.04 337.26 C156.98 344.15 156.12
							 352.02 155.99 358.12 C155.91 361.93 156.11 365.05 156.69 368.9 C157.26 372.61 158.18 376.99 159.17 380.56
							 C160.2 384.3 161.31 387.16 163.16 390.55 C164.95 393.84 167.45 397.63 169.9 400.58 C172.13 403.26 174.33
							 405.24 176.59 407.11 C181.72 411.33 187.18 414.97 195.7 416.91 C193.13 419.9 191.35 421.62 189.16 423.44
							 C187.07 425.17 184.61 426.98 182.25 428.52 C180.04 429.97 177.91 431.17 175.67 432.33 C168.98 435.78
							 161.29 438.79 154.28 440.69 C160.96 443.92 169.04 445.61 177.95 446.43 C183.87 446.97 190.16 447.13
							 195.54 446.8 C200.49 446.49 204.67 445.78 208.71 444.73 Z" class="st4"/>
			</g>
			<g id="shape20-10" v:mID="20" v:groupContext="shape" transform="translate(174.137,-87.6672)">
				<title>Ark.20</title>
				<path d="M0.33 463.31 C0.38 457.34 0.25 450.98 0.21 444.62 C0.19 441.76 0.19 438.89 0.19 436.04 C0.18 430.4 0.16
							 424.81 0.08 419.02 C0.01 413.86 -0.1 408.54 0.19 403.76 C0.36 400.94 0.68 398.31 1.71 396.09 C3.19 392.88
							 6.16 390.55 8.85 388.84 C8.88 386.24 8.89 383.9 8.89 381.62 C8.88 377.67 8.86 373.93 8.85 369.52 C8.85
							 364.14 8.87 357.77 9.54 352.81 C9.94 349.84 10.57 347.37 11.54 345.08 C13.48 340.5 16.78 336.62 19.41
							 333.7 C20.88 332.23 22.02 331.36 23.26 330.47 C24.63 329.48 26.12 328.46 27.67 327.55 C29.99 326.2 32.43
							 325.1 35.2 324.33 C41.55 322.58 49.61 322.53 56.07 323.99 C59.62 324.79 62.68 326.04 65.63 327.73 C67.47
							 328.78 69.26 329.99 70.87 331.34 C72.43 332.66 73.81 334.11 75.11 335.66 C75.98 336.7 76.81 337.79 77.63
							 338.99 C78.43 340.15 79.23 341.42 79.94 342.73 C81.24 345.13 82.27 347.68 82.83 349.97 C83.13 351.22
							 83.3 352.39 83.43 353.66 C83.96 358.78 83.97 365.42 83.98 371.71 C83.99 377.65 83.99 383.28 83.86 389.05
							 C85.84 389.89 87.41 391.46 88.7 393.01 C89.88 394.43 90.84 395.84 91.49 397.3 C92.17 398.82 92.52 400.4
							 92.66 402.35 C92.74 403.54 92.75 404.88 92.74 406.19 C92.74 407.59 92.72 408.96 92.71 410.28 C92.71
							 411.55 92.71 412.77 92.71 414.03 C92.72 416.08 92.71 418.2 92.71 420.38 C92.7 426.47 92.79 432.94 92.77
							 439.24 C92.76 444.88 92.68 450.38 92.84 456.36 C92.91 459.23 93.05 462.21 92.59 464.62 C92.24 466.48
							 91.53 467.99 90.63 469.42 C88.65 472.56 85.73 475.28 81.63 476.46 C78.19 477.45 73.92 477.35 69.86 477.3
							 C66.2 477.26 62.71 477.26 59.23 477.24 C51.52 477.21 43.86 477.11 36.17 476.97 C30.78 476.87 25.36 476.75
							 19.89 476.76 C17.6 476.77 15.29 476.8 13.2 476.59 C11.54 476.43 10.02 476.12 8.64 475.47 C6.41 474.43
							 4.56 472.51 3.16 470.68 C1.62 468.66 0.63 466.75 0.33 463.31 Z" class="st5"/>
			</g>
			<g id="shape21-12" v:mID="21" v:groupContext="shape" transform="translate(202.128,-176.293)">
				<title>Ark.21</title>
				<path d="M0 475.58 C0 474.51 0 474.33 0 474.16 C-0.02 470.22 0.05 467.03 0.06 462.59 C0.08 457.63 0.03 451.11 0.28
							 446.41 C0.42 443.84 0.65 441.81 1.63 439.71 C2.55 437.73 4.14 435.68 6.08 434.11 C8.23 432.38 10.79
							 431.24 13.45 430.64 C15.99 430.06 18.62 429.99 21.3 430.35 C23.08 430.58 24.88 431.01 26.49 431.64 C28.31
							 432.36 29.88 433.36 31.36 434.67 C32.76 435.93 34.08 437.46 35.01 439.04 C36.58 441.72 37 444.5 37.18
							 447.72 C37.33 450.45 37.32 453.5 37.32 456.35 C37.33 460.26 37.38 463.8 37.39 467.74 C37.4 470.96 37.39
							 474.45 37.39 477.32 C32.48 477.32 27.72 477.32 22.8 477.32 C21.12 477.32 19.42 477.32 17.72 477.32 C14.46
							 477.32 11.19 477.3 8.04 477.31 C5.42 477.32 2.88 477.35 0.16 477.26 C0.08 477.26 0 477.26 0 475.58 Z"
						class="st6"/>
			</g>
			<g id="shape22-14" v:mID="22" v:groupContext="shape" transform="translate(211.861,-116.025)">
				<title>Ark.22</title>
				<path d="M1.76 449.29 C1.04 450.34 0.9 450.61 0.78 450.87 C0.35 451.83 0.22 452.62 0.16 453.39 C0.04 455.22 0.35
							 456.96 1.34 458.6 C2.1 459.85 3.27 461.04 3.65 461.97 C3.84 462.44 3.83 462.84 3.78 463.29 C3.6 464.84
							 2.94 466.94 1.88 469.52 C0.88 471.97 -0.47 474.85 0.16 476.18 C0.97 477.88 4.96 477.09 9.14 477.15 C12.57
							 477.2 16.11 477.82 17.25 476.48 C18.67 474.82 16.36 470.11 14.94 466.99 C13.82 464.51 13.27 463.02 14.05
							 461.61 C14.83 460.18 16.95 458.83 17.53 456.31 C17.96 454.48 17.57 452.05 16.5 450.21 C15.62 448.71
							 14.28 447.61 12.92 446.92 C11.64 446.26 10.34 445.96 8.95 445.94 C7.63 445.91 6.23 446.13 5.09 446.62
							 C3.54 447.28 2.47 448.45 1.76 449.29 Z" class="st6"/>
			</g>
		</g>
	</g>
</svg>
