<svg viewBox="0 0 50 50" xmlns="http://www.w3.org/2000/svg" data-name="Lag 1" id="Lag_1" width="50" height="50"><defs><style>.cls-1{fill:none;stroke:#06c;stroke-linecap:round;stroke-linejoin:round;}</style></defs><title>Adminstrationsmodul</title><g data-name="Interface-Essential / Hierarchy/Organization / hierarchy-9" id="Interface-Essential_Hierarchy_Organization_hierarchy-9"><g data-name="Group 584" id="Group_584"><g id="hierarchy-9"><path d="M28,30a8,8,0,1,0-8-8A8,8,0,0,0,28,30Z" class="cls-1" data-name="Oval 343" id="Oval_343"></path><path d="M5,15a3,3,0,1,0-3-3A3,3,0,0,0,5,15Z" class="cls-1" data-name="Oval 344" id="Oval_344"></path><path d="M45,8a3,3,0,1,0-3-3A3,3,0,0,0,45,8Z" class="cls-1" data-name="Oval 345" id="Oval_345"></path><path d="M5,48a3,3,0,1,0-3-3A3,3,0,0,0,5,48Z" class="cls-1" data-name="Oval 346" id="Oval_346"></path><path d="M28,48a3,3,0,1,0-3-3A3,3,0,0,0,28,48Z" class="cls-1" data-name="Oval 347" id="Oval_347"></path><path d="M7.12,42.88l15.24-15.2" class="cls-1" data-name="Shape 2863" id="Shape_2863"></path><path d="M33.67,16.35l9.21-9.23" class="cls-1" data-name="Shape 2864" id="Shape_2864"></path><path d="M7.7,13.3l12.94,5.55" class="cls-1" data-name="Shape 2865" id="Shape_2865"></path><path d="M42.12,29.05l-7.23-3" class="cls-1" data-name="Shape 2866" id="Shape_2866"></path><path d="M28,42V30" class="cls-1" data-name="Shape 2867" id="Shape_2867"></path><path d="M45,33a3,3,0,1,0-3-3A3,3,0,0,0,45,33Z" class="cls-1" data-name="Oval 348" id="Oval_348"></path></g></g></g></svg>