<?xml version="1.0" encoding="UTF-8" standalone="no"?>
<!DOCTYPE svg PUBLIC "-//W3C//DTD SVG 1.1//EN" "http://www.w3.org/Graphics/SVG/1.1/DTD/svg11.dtd">
<!-- Generated by Microsoft Visio, SVG Export parties-up-party-oidc.svg Page-1 -->
<svg xmlns="http://www.w3.org/2000/svg" xmlns:xlink="http://www.w3.org/1999/xlink" xmlns:ev="http://www.w3.org/2001/xml-events"
		width="5.81075in" height="4.3472in" viewBox="0 0 418.374 312.999" xml:space="preserve" color-interpolation-filters="sRGB"
		class="st16">
	<style type="text/css">
	<![CDATA[
		.st1 {fill:none;stroke:#f78f1e;stroke-width:1}
		.st2 {fill:#000000;font-family:Calibri;font-size:1.5em}
		.st3 {fill:#fbe5d5;stroke:#7f7f7f;stroke-width:1}
		.st4 {fill:#000000;font-family:Calibri;font-size:1.00001em}
		.st5 {font-size:1em}
		.st6 {fill:none;stroke:#7f7f7f;stroke-width:1}
		.st7 {font-size:0.83333em}
		.st8 {stroke:#7f7f7f;stroke-linecap:round;stroke-linejoin:round;stroke-width:1}
		.st9 {fill:#ffffff;stroke:none;stroke-linecap:butt;stroke-width:7.2}
		.st10 {fill:#000000;font-family:Calibri;font-size:0.666664em}
		.st11 {fill:none;stroke:#bfbfbf;stroke-dasharray:7,5;stroke-width:1}
		.st12 {fill:#7f7f7f;font-family:Calibri;font-size:1.00001em}
		.st13 {stroke:#7f7f7f;stroke-dasharray:7,5;stroke-linecap:round;stroke-linejoin:round;stroke-width:1}
		.st14 {stroke:#bfbfbf;stroke-dasharray:7,5;stroke-linecap:round;stroke-linejoin:round;stroke-width:1}
		.st15 {fill:#7f7f7f;font-family:Calibri;font-size:0.666664em}
		.st16 {fill:none;fill-rule:evenodd;font-size:12px;overflow:visible;stroke-linecap:square;stroke-miterlimit:3}
	]]>
	</style>

	<g>
		<title>Page-1</title>
		<g id="shape36-1" transform="translate(32.9961,-89.5608)">
			<title>Rectangle.17</title>
			<desc>FoxIDs - track</desc>
			<rect x="0" y="173.663" width="361.134" height="139.336" class="st1"/>
			<text x="131.28" y="248.73" class="st2">FoxIDs - track</text>		</g>
		<g id="shape37-4" transform="translate(37.5314,-182.639)">
			<title>Rectangle.18</title>
			<desc>Up-party OpenID Connect</desc>
			<rect x="0" y="271.21" width="113.528" height="41.7891" class="st3"/>
			<text x="35.08" y="288.5" class="st4">Up-party  <tspan x="16.74" dy="1.2em" class="st5">OpenID Connect</tspan></text>		</g>
		<g id="shape38-8" transform="translate(37.3898,-93.126)">
			<title>Rectangle.20</title>
			<desc>Down-party OpenID Connect (OAuth 2.0 Resource)</desc>
			<rect x="0" y="264.973" width="113.528" height="48.0253" class="st6"/>
			<text x="27.79" y="278.19" class="st4">Down-party  <tspan x="16.74" dy="1.2em" class="st5">OpenID Connect </tspan><tspan
						x="4.54" dy="1.2em" class="st5">(OAuth 2.0 Resource)</tspan></text>		</g>
		<g id="shape39-13" transform="translate(156.728,-93.126)">
			<title>Rectangle.21</title>
			<desc>Down-party OAuth 2.0 Client OAuth 2.0 Resource</desc>
			<rect x="0" y="264.973" width="113.528" height="48.0253" class="st6"/>
			<text x="27.79" y="278.19" class="st4">Down-party  <tspan x="16.59" dy="1.2em" class="st5">OAuth 2.0 Client </tspan><tspan
						x="8.17" dy="1.2em" class="st5">OAuth 2.0 Resource</tspan></text>		</g>
		<g id="shape40-18" transform="translate(9.752,-263.973)">
			<title>Rectangle.22</title>
			<desc>External OpenID Provider (OP) (Azure AD, AD FS, IdentityServe...</desc>
			<rect x="0" y="264.973" width="161.008" height="48.0253" class="st3"/>
			<text x="6.57" y="280.59" class="st4">External OpenID Provider (OP) <tspan x="13.69" dy="1.26em" class="st7">(Azure AD, AD FS, IdentityServer, </tspan><tspan
						x="61.71" dy="1.2em" class="st7">Auth0 ...)</tspan></text>		</g>
		<g id="shape41-23" transform="translate(84.4908,-263.973)">
			<title>Dynamic connector</title>
			<desc>OpenID Connect</desc>
			<path d="M5.77 313 L8.41 352.54" class="st8"/>
			<rect x="-19.5947" y="327.972" width="53.3628" height="9.59985" class="st9"/>
			<text x="-19.59" y="335.17" class="st10">OpenID Connect</text>		</g>
		<g id="shape42-28" transform="translate(1,-1)">
			<title>Rectangle.29</title>
			<desc>Client (web application, JS client, Blazor client ...)</desc>
			<rect x="0" y="271.21" width="99.2126" height="41.7891" class="st6"/>
			<text x="35.51" y="282.5" class="st4">Client  <tspan x="9.46" dy="1.26em" class="st7">(web application, JS </tspan><tspan
						x="4.65" dy="1.38em" class="st7">client, Blazor client ...)</tspan></text>		</g>
		<g id="shape43-33" transform="translate(83.1745,-93.126)">
			<title>Dynamic connector.32</title>
			<desc>OpenID Connect</desc>
			<path d="M0 313 L-23.01 363.34" class="st8"/>
			<rect x="-38.1887" y="333.367" width="53.3628" height="9.59985" class="st9"/>
			<text x="-38.19" y="340.57" class="st10">OpenID Connect</text>		</g>
		<g id="shape44-38" transform="translate(195.813,-93.126)">
			<title>Dynamic connector.33</title>
			<desc>OAuth 2.0</desc>
			<path d="M0 313 L-37.06 363.34" class="st8"/>
			<rect x="-35.0043" y="333.367" width="32.9491" height="9.59985" class="st9"/>
			<text x="-35" y="340.57" class="st10">OAuth 2.0</text>		</g>
		<g id="shape45-43" transform="translate(106.095,-1)">
			<title>Rectangle.35</title>
			<desc>Resource (API)</desc>
			<rect x="0" y="271.21" width="74.5512" height="41.7891" class="st6"/>
			<text x="14.75" y="288.5" class="st4">Resource  <tspan x="27.51" dy="1.44em" class="st7">(API)</tspan></text>		</g>
		<g id="shape46-47" transform="translate(186.528,-1)">
			<title>Rectangle.37</title>
			<desc>Client Credential Grant (Backend application)</desc>
			<rect x="0" y="271.21" width="120.331" height="41.7891" class="st6"/>
			<text x="4.23" y="288.5" class="st4">Client Credential Grant <tspan x="16.22" dy="1.44em" class="st7">(Backend application)</tspan></text>		</g>
		<g id="shape47-51" transform="translate(221.863,-93.126)">
			<title>Dynamic connector.38</title>
			<desc>OAuth 2.0</desc>
			<path d="M0 313 L17.55 363.34" class="st8"/>
			<rect x="-7.70106" y="333.367" width="32.9491" height="9.59985" class="st9"/>
			<text x="-7.7" y="340.57" class="st10">OAuth 2.0</text>		</g>
		<g id="shape48-56" transform="translate(156.728,-182.639)">
			<title>Rectangle.39</title>
			<desc>Up-party Login</desc>
			<path d="M0 313 L113.53 313 L113.53 271.21 L0 271.21 L0 313 Z" class="st11"/>
			<text x="35.08" y="288.5" class="st12">Up-party  <tspan x="43.72" dy="1.2em" class="st5">Login</tspan></text>		</g>
		<g id="shape49-60" transform="translate(275.925,-182.639)">
			<title>Rectangle.41</title>
			<desc>Up-party SAML 2.0</desc>
			<path d="M0 313 L113.53 313 L113.53 271.21 L0 271.21 L0 313 Z" class="st11"/>
			<text x="35.08" y="288.5" class="st12">Up-party  <tspan x="33.93" dy="1.2em" class="st5">SAML 2.0</tspan></text>		</g>
		<g id="shape50-64" transform="translate(106.562,-93.126)">
			<title>Dynamic connector.45</title>
			<desc>OAuth 2.0</desc>
			<path d="M0 313 L26.01 363.34" class="st13"/>
			<rect x="-3.46887" y="333.367" width="32.9491" height="9.59985" class="st9"/>
			<text x="-3.47" y="340.57" class="st10">OAuth 2.0</text>		</g>
		<g id="shape51-69" transform="translate(275.925,-93.126)">
			<title>Rectangle.47</title>
			<desc>Down-party SAML 2.0</desc>
			<path d="M0 313 L113.53 313 L113.53 264.97 L0 264.97 L0 313 Z" class="st11"/>
			<text x="27.79" y="285.39" class="st12">Down-party  <tspan x="33.93" dy="1.2em" class="st5">SAML 2.0</tspan></text>		</g>
		<g id="shape52-73" transform="translate(312.74,-1)">
			<title>Rectangle.48</title>
			<desc>Relying Party (RP) (web application)</desc>
			<path d="M0 313 L99.21 313 L99.21 271.21 L0 271.21 L0 313 Z" class="st11"/>
			<text x="6.42" y="288.5" class="st12">Relying Party (RP) <tspan x="14.22" dy="1.44em" class="st7">(web application)</tspan></text>		</g>
		<g id="shape53-77" transform="translate(340.166,-93.126)">
			<title>Dynamic connector.50</title>
			<desc>SAML 2.0</desc>
			<path d="M0 313 L15.67 363.34" class="st14"/>
			<rect x="-7.3855" y="333.367" width="30.4453" height="9.59985" class="st9"/>
			<text x="-7.39" y="340.57" class="st15">SAML 2.0</text>		</g>
		<g id="shape54-82" transform="translate(256.366,-263.973)">
			<title>Rectangle.51</title>
			<desc>External Identity Provider (IdP) (Azure AD, AD FS, Auth0, Key...</desc>
			<path d="M0 313 L161.01 313 L161.01 264.97 L0 264.97 L0 313 Z" class="st11"/>
			<text x="5.43" y="280.59" class="st12">External Identity Provider (IdP) <tspan x="9.82" dy="1.26em" class="st7">(Azure AD, AD FS, Auth0, Keycloak, </tspan><tspan
						x="48.42" dy="1.2em" class="st7">Google Apps ...)</tspan></text>		</g>
		<g id="shape55-87" transform="translate(342.589,-263.973)">
			<title>Dynamic connector.52</title>
			<desc>SAML 2.0</desc>
			<path d="M-5.72 313 L-8.45 352.54" class="st14"/>
			<rect x="-22.3092" y="327.972" width="30.4453" height="9.59985" class="st9"/>
			<text x="-22.31" y="335.17" class="st15">SAML 2.0</text>		</g>
	</g>
</svg>
